<?xml version="1.0" encoding="utf-8" standalone="no"?>
<!DOCTYPE svg PUBLIC "-//W3C//DTD SVG 1.1//EN"
  "http://www.w3.org/Graphics/SVG/1.1/DTD/svg11.dtd">
<svg height="216pt" version="1.1" viewBox="0 0 720 216" width="720pt" xmlns="http://www.w3.org/2000/svg" xmlns:xlink="http://www.w3.org/1999/xlink">
 <metadata>
  <rdf:RDF xmlns:cc="http://creativecommons.org/ns#" xmlns:dc="http://purl.org/dc/elements/1.1/" xmlns:rdf="http://www.w3.org/1999/02/22-rdf-syntax-ns#">
   <cc:Work>
    <dc:type rdf:resource="http://purl.org/dc/dcmitype/StillImage"/>
    <dc:date>2021-09-09T18:02:40.559639</dc:date>
    <dc:format>image/svg+xml</dc:format>
    <dc:creator>
     <cc:Agent>
      <dc:title>Matplotlib v3.4.2, https://matplotlib.org/</dc:title>
     </cc:Agent>
    </dc:creator>
   </cc:Work>
  </rdf:RDF>
 </metadata>
 <defs>
  <style type="text/css">*{stroke-linecap:butt;stroke-linejoin:round;}</style>
 </defs>
 <g id="figure_1">
  <g id="patch_1">
   <path d="M 0 216 
L 720 216 
L 720 0 
L 0 0 
z
" style="fill:none;"/>
  </g>
  <g id="axes_1">
   <g id="patch_2">
    <path d="M 90 189 
L 648 189 
L 648 25.92 
L 90 25.92 
z
" style="fill:#ffffff;"/>
   </g>
   <g id="matplotlib.axis_1">
    <g id="xtick_1">
     <g id="line2d_1">
      <defs>
       <path d="M 0 0 
L 0 3.5 
" id="m0021c2bad2" style="stroke:#000000;stroke-width:0.8;"/>
      </defs>
      <g>
       <use style="stroke:#000000;stroke-width:0.8;" x="115.305722" xlink:href="#m0021c2bad2" y="189"/>
      </g>
     </g>
     <g id="text_1">
      <!-- 0 -->
      <g transform="translate(112.124472 203.598437)scale(0.1 -0.1)">
       <defs>
        <path d="M 2034 4250 
Q 1547 4250 1301 3770 
Q 1056 3291 1056 2328 
Q 1056 1369 1301 889 
Q 1547 409 2034 409 
Q 2525 409 2770 889 
Q 3016 1369 3016 2328 
Q 3016 3291 2770 3770 
Q 2525 4250 2034 4250 
z
M 2034 4750 
Q 2819 4750 3233 4129 
Q 3647 3509 3647 2328 
Q 3647 1150 3233 529 
Q 2819 -91 2034 -91 
Q 1250 -91 836 529 
Q 422 1150 422 2328 
Q 422 3509 836 4129 
Q 1250 4750 2034 4750 
z
" id="DejaVuSans-30" transform="scale(0.015625)"/>
       </defs>
       <use xlink:href="#DejaVuSans-30"/>
      </g>
     </g>
    </g>
    <g id="xtick_2">
     <g id="line2d_2">
      <g>
       <use style="stroke:#000000;stroke-width:0.8;" x="231.134636" xlink:href="#m0021c2bad2" y="189"/>
      </g>
     </g>
     <g id="text_2">
      <!-- 2000 -->
      <g transform="translate(218.409636 203.598437)scale(0.1 -0.1)">
       <defs>
        <path d="M 1228 531 
L 3431 531 
L 3431 0 
L 469 0 
L 469 531 
Q 828 903 1448 1529 
Q 2069 2156 2228 2338 
Q 2531 2678 2651 2914 
Q 2772 3150 2772 3378 
Q 2772 3750 2511 3984 
Q 2250 4219 1831 4219 
Q 1534 4219 1204 4116 
Q 875 4013 500 3803 
L 500 4441 
Q 881 4594 1212 4672 
Q 1544 4750 1819 4750 
Q 2544 4750 2975 4387 
Q 3406 4025 3406 3419 
Q 3406 3131 3298 2873 
Q 3191 2616 2906 2266 
Q 2828 2175 2409 1742 
Q 1991 1309 1228 531 
z
" id="DejaVuSans-32" transform="scale(0.015625)"/>
       </defs>
       <use xlink:href="#DejaVuSans-32"/>
       <use x="63.623047" xlink:href="#DejaVuSans-30"/>
       <use x="127.246094" xlink:href="#DejaVuSans-30"/>
       <use x="190.869141" xlink:href="#DejaVuSans-30"/>
      </g>
     </g>
    </g>
    <g id="xtick_3">
     <g id="line2d_3">
      <g>
       <use style="stroke:#000000;stroke-width:0.8;" x="346.963549" xlink:href="#m0021c2bad2" y="189"/>
      </g>
     </g>
     <g id="text_3">
      <!-- 4000 -->
      <g transform="translate(334.238549 203.598437)scale(0.1 -0.1)">
       <defs>
        <path d="M 2419 4116 
L 825 1625 
L 2419 1625 
L 2419 4116 
z
M 2253 4666 
L 3047 4666 
L 3047 1625 
L 3713 1625 
L 3713 1100 
L 3047 1100 
L 3047 0 
L 2419 0 
L 2419 1100 
L 313 1100 
L 313 1709 
L 2253 4666 
z
" id="DejaVuSans-34" transform="scale(0.015625)"/>
       </defs>
       <use xlink:href="#DejaVuSans-34"/>
       <use x="63.623047" xlink:href="#DejaVuSans-30"/>
       <use x="127.246094" xlink:href="#DejaVuSans-30"/>
       <use x="190.869141" xlink:href="#DejaVuSans-30"/>
      </g>
     </g>
    </g>
    <g id="xtick_4">
     <g id="line2d_4">
      <g>
       <use style="stroke:#000000;stroke-width:0.8;" x="462.792463" xlink:href="#m0021c2bad2" y="189"/>
      </g>
     </g>
     <g id="text_4">
      <!-- 6000 -->
      <g transform="translate(450.067463 203.598437)scale(0.1 -0.1)">
       <defs>
        <path d="M 2113 2584 
Q 1688 2584 1439 2293 
Q 1191 2003 1191 1497 
Q 1191 994 1439 701 
Q 1688 409 2113 409 
Q 2538 409 2786 701 
Q 3034 994 3034 1497 
Q 3034 2003 2786 2293 
Q 2538 2584 2113 2584 
z
M 3366 4563 
L 3366 3988 
Q 3128 4100 2886 4159 
Q 2644 4219 2406 4219 
Q 1781 4219 1451 3797 
Q 1122 3375 1075 2522 
Q 1259 2794 1537 2939 
Q 1816 3084 2150 3084 
Q 2853 3084 3261 2657 
Q 3669 2231 3669 1497 
Q 3669 778 3244 343 
Q 2819 -91 2113 -91 
Q 1303 -91 875 529 
Q 447 1150 447 2328 
Q 447 3434 972 4092 
Q 1497 4750 2381 4750 
Q 2619 4750 2861 4703 
Q 3103 4656 3366 4563 
z
" id="DejaVuSans-36" transform="scale(0.015625)"/>
       </defs>
       <use xlink:href="#DejaVuSans-36"/>
       <use x="63.623047" xlink:href="#DejaVuSans-30"/>
       <use x="127.246094" xlink:href="#DejaVuSans-30"/>
       <use x="190.869141" xlink:href="#DejaVuSans-30"/>
      </g>
     </g>
    </g>
    <g id="xtick_5">
     <g id="line2d_5">
      <g>
       <use style="stroke:#000000;stroke-width:0.8;" x="578.621376" xlink:href="#m0021c2bad2" y="189"/>
      </g>
     </g>
     <g id="text_5">
      <!-- 8000 -->
      <g transform="translate(565.896376 203.598437)scale(0.1 -0.1)">
       <defs>
        <path d="M 2034 2216 
Q 1584 2216 1326 1975 
Q 1069 1734 1069 1313 
Q 1069 891 1326 650 
Q 1584 409 2034 409 
Q 2484 409 2743 651 
Q 3003 894 3003 1313 
Q 3003 1734 2745 1975 
Q 2488 2216 2034 2216 
z
M 1403 2484 
Q 997 2584 770 2862 
Q 544 3141 544 3541 
Q 544 4100 942 4425 
Q 1341 4750 2034 4750 
Q 2731 4750 3128 4425 
Q 3525 4100 3525 3541 
Q 3525 3141 3298 2862 
Q 3072 2584 2669 2484 
Q 3125 2378 3379 2068 
Q 3634 1759 3634 1313 
Q 3634 634 3220 271 
Q 2806 -91 2034 -91 
Q 1263 -91 848 271 
Q 434 634 434 1313 
Q 434 1759 690 2068 
Q 947 2378 1403 2484 
z
M 1172 3481 
Q 1172 3119 1398 2916 
Q 1625 2713 2034 2713 
Q 2441 2713 2670 2916 
Q 2900 3119 2900 3481 
Q 2900 3844 2670 4047 
Q 2441 4250 2034 4250 
Q 1625 4250 1398 4047 
Q 1172 3844 1172 3481 
z
" id="DejaVuSans-38" transform="scale(0.015625)"/>
       </defs>
       <use xlink:href="#DejaVuSans-38"/>
       <use x="63.623047" xlink:href="#DejaVuSans-30"/>
       <use x="127.246094" xlink:href="#DejaVuSans-30"/>
       <use x="190.869141" xlink:href="#DejaVuSans-30"/>
      </g>
     </g>
    </g>
    <g id="text_6">
     <!-- Heure -->
     <g transform="translate(353.975 217.276563)scale(0.1 -0.1)">
      <defs>
       <path d="M 628 4666 
L 1259 4666 
L 1259 2753 
L 3553 2753 
L 3553 4666 
L 4184 4666 
L 4184 0 
L 3553 0 
L 3553 2222 
L 1259 2222 
L 1259 0 
L 628 0 
L 628 4666 
z
" id="DejaVuSans-48" transform="scale(0.015625)"/>
       <path d="M 3597 1894 
L 3597 1613 
L 953 1613 
Q 991 1019 1311 708 
Q 1631 397 2203 397 
Q 2534 397 2845 478 
Q 3156 559 3463 722 
L 3463 178 
Q 3153 47 2828 -22 
Q 2503 -91 2169 -91 
Q 1331 -91 842 396 
Q 353 884 353 1716 
Q 353 2575 817 3079 
Q 1281 3584 2069 3584 
Q 2775 3584 3186 3129 
Q 3597 2675 3597 1894 
z
M 3022 2063 
Q 3016 2534 2758 2815 
Q 2500 3097 2075 3097 
Q 1594 3097 1305 2825 
Q 1016 2553 972 2059 
L 3022 2063 
z
" id="DejaVuSans-65" transform="scale(0.015625)"/>
       <path d="M 544 1381 
L 544 3500 
L 1119 3500 
L 1119 1403 
Q 1119 906 1312 657 
Q 1506 409 1894 409 
Q 2359 409 2629 706 
Q 2900 1003 2900 1516 
L 2900 3500 
L 3475 3500 
L 3475 0 
L 2900 0 
L 2900 538 
Q 2691 219 2414 64 
Q 2138 -91 1772 -91 
Q 1169 -91 856 284 
Q 544 659 544 1381 
z
M 1991 3584 
L 1991 3584 
z
" id="DejaVuSans-75" transform="scale(0.015625)"/>
       <path d="M 2631 2963 
Q 2534 3019 2420 3045 
Q 2306 3072 2169 3072 
Q 1681 3072 1420 2755 
Q 1159 2438 1159 1844 
L 1159 0 
L 581 0 
L 581 3500 
L 1159 3500 
L 1159 2956 
Q 1341 3275 1631 3429 
Q 1922 3584 2338 3584 
Q 2397 3584 2469 3576 
Q 2541 3569 2628 3553 
L 2631 2963 
z
" id="DejaVuSans-72" transform="scale(0.015625)"/>
      </defs>
      <use xlink:href="#DejaVuSans-48"/>
      <use x="75.195312" xlink:href="#DejaVuSans-65"/>
      <use x="136.71875" xlink:href="#DejaVuSans-75"/>
      <use x="200.097656" xlink:href="#DejaVuSans-72"/>
      <use x="238.960938" xlink:href="#DejaVuSans-65"/>
     </g>
    </g>
   </g>
   <g id="matplotlib.axis_2">
    <g id="ytick_1">
     <g id="line2d_6">
      <defs>
       <path d="M 0 0 
L -3.5 0 
" id="m3af6bc3d23" style="stroke:#000000;stroke-width:0.8;"/>
      </defs>
      <g>
       <use style="stroke:#000000;stroke-width:0.8;" x="90" xlink:href="#m3af6bc3d23" y="186.673297"/>
      </g>
     </g>
     <g id="text_7">
      <!-- 0 -->
      <g transform="translate(76.6375 190.472516)scale(0.1 -0.1)">
       <use xlink:href="#DejaVuSans-30"/>
      </g>
     </g>
    </g>
    <g id="ytick_2">
     <g id="line2d_7">
      <g>
       <use style="stroke:#000000;stroke-width:0.8;" x="90" xlink:href="#m3af6bc3d23" y="148.338154"/>
      </g>
     </g>
     <g id="text_8">
      <!-- 5000 -->
      <g transform="translate(57.55 152.137373)scale(0.1 -0.1)">
       <defs>
        <path d="M 691 4666 
L 3169 4666 
L 3169 4134 
L 1269 4134 
L 1269 2991 
Q 1406 3038 1543 3061 
Q 1681 3084 1819 3084 
Q 2600 3084 3056 2656 
Q 3513 2228 3513 1497 
Q 3513 744 3044 326 
Q 2575 -91 1722 -91 
Q 1428 -91 1123 -41 
Q 819 9 494 109 
L 494 744 
Q 775 591 1075 516 
Q 1375 441 1709 441 
Q 2250 441 2565 725 
Q 2881 1009 2881 1497 
Q 2881 1984 2565 2268 
Q 2250 2553 1709 2553 
Q 1456 2553 1204 2497 
Q 953 2441 691 2322 
L 691 4666 
z
" id="DejaVuSans-35" transform="scale(0.015625)"/>
       </defs>
       <use xlink:href="#DejaVuSans-35"/>
       <use x="63.623047" xlink:href="#DejaVuSans-30"/>
       <use x="127.246094" xlink:href="#DejaVuSans-30"/>
       <use x="190.869141" xlink:href="#DejaVuSans-30"/>
      </g>
     </g>
    </g>
    <g id="ytick_3">
     <g id="line2d_8">
      <g>
       <use style="stroke:#000000;stroke-width:0.8;" x="90" xlink:href="#m3af6bc3d23" y="110.003012"/>
      </g>
     </g>
     <g id="text_9">
      <!-- 10000 -->
      <g transform="translate(51.1875 113.802231)scale(0.1 -0.1)">
       <defs>
        <path d="M 794 531 
L 1825 531 
L 1825 4091 
L 703 3866 
L 703 4441 
L 1819 4666 
L 2450 4666 
L 2450 531 
L 3481 531 
L 3481 0 
L 794 0 
L 794 531 
z
" id="DejaVuSans-31" transform="scale(0.015625)"/>
       </defs>
       <use xlink:href="#DejaVuSans-31"/>
       <use x="63.623047" xlink:href="#DejaVuSans-30"/>
       <use x="127.246094" xlink:href="#DejaVuSans-30"/>
       <use x="190.869141" xlink:href="#DejaVuSans-30"/>
       <use x="254.492188" xlink:href="#DejaVuSans-30"/>
      </g>
     </g>
    </g>
    <g id="ytick_4">
     <g id="line2d_9">
      <g>
       <use style="stroke:#000000;stroke-width:0.8;" x="90" xlink:href="#m3af6bc3d23" y="71.66787"/>
      </g>
     </g>
     <g id="text_10">
      <!-- 15000 -->
      <g transform="translate(51.1875 75.467088)scale(0.1 -0.1)">
       <use xlink:href="#DejaVuSans-31"/>
       <use x="63.623047" xlink:href="#DejaVuSans-35"/>
       <use x="127.246094" xlink:href="#DejaVuSans-30"/>
       <use x="190.869141" xlink:href="#DejaVuSans-30"/>
       <use x="254.492188" xlink:href="#DejaVuSans-30"/>
      </g>
     </g>
    </g>
    <g id="ytick_5">
     <g id="line2d_10">
      <g>
       <use style="stroke:#000000;stroke-width:0.8;" x="90" xlink:href="#m3af6bc3d23" y="33.332727"/>
      </g>
     </g>
     <g id="text_11">
      <!-- 20000 -->
      <g transform="translate(51.1875 37.131946)scale(0.1 -0.1)">
       <use xlink:href="#DejaVuSans-32"/>
       <use x="63.623047" xlink:href="#DejaVuSans-30"/>
       <use x="127.246094" xlink:href="#DejaVuSans-30"/>
       <use x="190.869141" xlink:href="#DejaVuSans-30"/>
       <use x="254.492188" xlink:href="#DejaVuSans-30"/>
      </g>
     </g>
    </g>
    <g id="text_12">
     <!-- Energie stockée [kWh] -->
     <g transform="translate(45.107812 163.800625)rotate(-90)scale(0.1 -0.1)">
      <defs>
       <path d="M 628 4666 
L 3578 4666 
L 3578 4134 
L 1259 4134 
L 1259 2753 
L 3481 2753 
L 3481 2222 
L 1259 2222 
L 1259 531 
L 3634 531 
L 3634 0 
L 628 0 
L 628 4666 
z
" id="DejaVuSans-45" transform="scale(0.015625)"/>
       <path d="M 3513 2113 
L 3513 0 
L 2938 0 
L 2938 2094 
Q 2938 2591 2744 2837 
Q 2550 3084 2163 3084 
Q 1697 3084 1428 2787 
Q 1159 2491 1159 1978 
L 1159 0 
L 581 0 
L 581 3500 
L 1159 3500 
L 1159 2956 
Q 1366 3272 1645 3428 
Q 1925 3584 2291 3584 
Q 2894 3584 3203 3211 
Q 3513 2838 3513 2113 
z
" id="DejaVuSans-6e" transform="scale(0.015625)"/>
       <path d="M 2906 1791 
Q 2906 2416 2648 2759 
Q 2391 3103 1925 3103 
Q 1463 3103 1205 2759 
Q 947 2416 947 1791 
Q 947 1169 1205 825 
Q 1463 481 1925 481 
Q 2391 481 2648 825 
Q 2906 1169 2906 1791 
z
M 3481 434 
Q 3481 -459 3084 -895 
Q 2688 -1331 1869 -1331 
Q 1566 -1331 1297 -1286 
Q 1028 -1241 775 -1147 
L 775 -588 
Q 1028 -725 1275 -790 
Q 1522 -856 1778 -856 
Q 2344 -856 2625 -561 
Q 2906 -266 2906 331 
L 2906 616 
Q 2728 306 2450 153 
Q 2172 0 1784 0 
Q 1141 0 747 490 
Q 353 981 353 1791 
Q 353 2603 747 3093 
Q 1141 3584 1784 3584 
Q 2172 3584 2450 3431 
Q 2728 3278 2906 2969 
L 2906 3500 
L 3481 3500 
L 3481 434 
z
" id="DejaVuSans-67" transform="scale(0.015625)"/>
       <path d="M 603 3500 
L 1178 3500 
L 1178 0 
L 603 0 
L 603 3500 
z
M 603 4863 
L 1178 4863 
L 1178 4134 
L 603 4134 
L 603 4863 
z
" id="DejaVuSans-69" transform="scale(0.015625)"/>
       <path id="DejaVuSans-20" transform="scale(0.015625)"/>
       <path d="M 2834 3397 
L 2834 2853 
Q 2591 2978 2328 3040 
Q 2066 3103 1784 3103 
Q 1356 3103 1142 2972 
Q 928 2841 928 2578 
Q 928 2378 1081 2264 
Q 1234 2150 1697 2047 
L 1894 2003 
Q 2506 1872 2764 1633 
Q 3022 1394 3022 966 
Q 3022 478 2636 193 
Q 2250 -91 1575 -91 
Q 1294 -91 989 -36 
Q 684 19 347 128 
L 347 722 
Q 666 556 975 473 
Q 1284 391 1588 391 
Q 1994 391 2212 530 
Q 2431 669 2431 922 
Q 2431 1156 2273 1281 
Q 2116 1406 1581 1522 
L 1381 1569 
Q 847 1681 609 1914 
Q 372 2147 372 2553 
Q 372 3047 722 3315 
Q 1072 3584 1716 3584 
Q 2034 3584 2315 3537 
Q 2597 3491 2834 3397 
z
" id="DejaVuSans-73" transform="scale(0.015625)"/>
       <path d="M 1172 4494 
L 1172 3500 
L 2356 3500 
L 2356 3053 
L 1172 3053 
L 1172 1153 
Q 1172 725 1289 603 
Q 1406 481 1766 481 
L 2356 481 
L 2356 0 
L 1766 0 
Q 1100 0 847 248 
Q 594 497 594 1153 
L 594 3053 
L 172 3053 
L 172 3500 
L 594 3500 
L 594 4494 
L 1172 4494 
z
" id="DejaVuSans-74" transform="scale(0.015625)"/>
       <path d="M 1959 3097 
Q 1497 3097 1228 2736 
Q 959 2375 959 1747 
Q 959 1119 1226 758 
Q 1494 397 1959 397 
Q 2419 397 2687 759 
Q 2956 1122 2956 1747 
Q 2956 2369 2687 2733 
Q 2419 3097 1959 3097 
z
M 1959 3584 
Q 2709 3584 3137 3096 
Q 3566 2609 3566 1747 
Q 3566 888 3137 398 
Q 2709 -91 1959 -91 
Q 1206 -91 779 398 
Q 353 888 353 1747 
Q 353 2609 779 3096 
Q 1206 3584 1959 3584 
z
" id="DejaVuSans-6f" transform="scale(0.015625)"/>
       <path d="M 3122 3366 
L 3122 2828 
Q 2878 2963 2633 3030 
Q 2388 3097 2138 3097 
Q 1578 3097 1268 2742 
Q 959 2388 959 1747 
Q 959 1106 1268 751 
Q 1578 397 2138 397 
Q 2388 397 2633 464 
Q 2878 531 3122 666 
L 3122 134 
Q 2881 22 2623 -34 
Q 2366 -91 2075 -91 
Q 1284 -91 818 406 
Q 353 903 353 1747 
Q 353 2603 823 3093 
Q 1294 3584 2113 3584 
Q 2378 3584 2631 3529 
Q 2884 3475 3122 3366 
z
" id="DejaVuSans-63" transform="scale(0.015625)"/>
       <path d="M 581 4863 
L 1159 4863 
L 1159 1991 
L 2875 3500 
L 3609 3500 
L 1753 1863 
L 3688 0 
L 2938 0 
L 1159 1709 
L 1159 0 
L 581 0 
L 581 4863 
z
" id="DejaVuSans-6b" transform="scale(0.015625)"/>
       <path d="M 3597 1894 
L 3597 1613 
L 953 1613 
Q 991 1019 1311 708 
Q 1631 397 2203 397 
Q 2534 397 2845 478 
Q 3156 559 3463 722 
L 3463 178 
Q 3153 47 2828 -22 
Q 2503 -91 2169 -91 
Q 1331 -91 842 396 
Q 353 884 353 1716 
Q 353 2575 817 3079 
Q 1281 3584 2069 3584 
Q 2775 3584 3186 3129 
Q 3597 2675 3597 1894 
z
M 3022 2063 
Q 3016 2534 2758 2815 
Q 2500 3097 2075 3097 
Q 1594 3097 1305 2825 
Q 1016 2553 972 2059 
L 3022 2063 
z
M 2469 5119 
L 3091 5119 
L 2072 3944 
L 1594 3944 
L 2469 5119 
z
" id="DejaVuSans-e9" transform="scale(0.015625)"/>
       <path d="M 550 4863 
L 1875 4863 
L 1875 4416 
L 1125 4416 
L 1125 -397 
L 1875 -397 
L 1875 -844 
L 550 -844 
L 550 4863 
z
" id="DejaVuSans-5b" transform="scale(0.015625)"/>
       <path d="M 213 4666 
L 850 4666 
L 1831 722 
L 2809 4666 
L 3519 4666 
L 4500 722 
L 5478 4666 
L 6119 4666 
L 4947 0 
L 4153 0 
L 3169 4050 
L 2175 0 
L 1381 0 
L 213 4666 
z
" id="DejaVuSans-57" transform="scale(0.015625)"/>
       <path d="M 3513 2113 
L 3513 0 
L 2938 0 
L 2938 2094 
Q 2938 2591 2744 2837 
Q 2550 3084 2163 3084 
Q 1697 3084 1428 2787 
Q 1159 2491 1159 1978 
L 1159 0 
L 581 0 
L 581 4863 
L 1159 4863 
L 1159 2956 
Q 1366 3272 1645 3428 
Q 1925 3584 2291 3584 
Q 2894 3584 3203 3211 
Q 3513 2838 3513 2113 
z
" id="DejaVuSans-68" transform="scale(0.015625)"/>
       <path d="M 1947 4863 
L 1947 -844 
L 622 -844 
L 622 -397 
L 1369 -397 
L 1369 4416 
L 622 4416 
L 622 4863 
L 1947 4863 
z
" id="DejaVuSans-5d" transform="scale(0.015625)"/>
      </defs>
      <use xlink:href="#DejaVuSans-45"/>
      <use x="63.183594" xlink:href="#DejaVuSans-6e"/>
      <use x="126.5625" xlink:href="#DejaVuSans-65"/>
      <use x="188.085938" xlink:href="#DejaVuSans-72"/>
      <use x="227.449219" xlink:href="#DejaVuSans-67"/>
      <use x="290.925781" xlink:href="#DejaVuSans-69"/>
      <use x="318.708984" xlink:href="#DejaVuSans-65"/>
      <use x="380.232422" xlink:href="#DejaVuSans-20"/>
      <use x="412.019531" xlink:href="#DejaVuSans-73"/>
      <use x="464.119141" xlink:href="#DejaVuSans-74"/>
      <use x="503.328125" xlink:href="#DejaVuSans-6f"/>
      <use x="564.509766" xlink:href="#DejaVuSans-63"/>
      <use x="619.490234" xlink:href="#DejaVuSans-6b"/>
      <use x="673.775391" xlink:href="#DejaVuSans-e9"/>
      <use x="735.298828" xlink:href="#DejaVuSans-65"/>
      <use x="796.822266" xlink:href="#DejaVuSans-20"/>
      <use x="828.609375" xlink:href="#DejaVuSans-5b"/>
      <use x="867.623047" xlink:href="#DejaVuSans-6b"/>
      <use x="925.533203" xlink:href="#DejaVuSans-57"/>
      <use x="1024.410156" xlink:href="#DejaVuSans-68"/>
      <use x="1087.789062" xlink:href="#DejaVuSans-5d"/>
     </g>
    </g>
   </g>
   <g id="line2d_11">
    <path clip-path="url(#p5b633f754d)" d="M 115.363636 94.609897 
L 115.711123 94.364802 
L 116.000695 94.364802 
L 116.116524 94.643702 
L 116.232353 94.643702 
L 116.348182 95.076687 
L 116.57984 97.540164 
L 117.216899 97.627238 
L 117.390642 98.102855 
L 117.506471 98.6091 
L 117.6223 98.6091 
L 117.738129 99.096442 
L 117.969787 101.597022 
L 118.780589 101.704246 
L 118.954333 101.784853 
L 119.070162 101.784853 
L 119.128076 101.972899 
L 119.359734 104.391288 
L 119.707221 104.303953 
L 119.880964 104.141694 
L 120.518023 104.141694 
L 120.807595 105.807703 
L 121.039253 105.717749 
L 121.270911 105.459896 
L 121.965884 105.434737 
L 122.081713 105.982899 
L 122.4292 105.905775 
L 122.660858 105.65464 
L 123.355831 105.754755 
L 123.47166 106.91997 
L 123.761233 106.888453 
L 124.050805 106.445505 
L 124.745778 106.445505 
L 124.861607 107.236622 
L 125.093265 107.202617 
L 125.440752 106.50204 
L 125.730324 106.405534 
L 125.788239 106.372755 
L 126.019896 105.964982 
L 126.425298 105.973523 
L 126.888613 105.043555 
L 127.004442 104.986484 
L 127.178186 104.716637 
L 127.409843 104.122842 
L 127.873159 103.872679 
L 128.220646 103.117189 
L 128.452304 103.01392 
L 129.031448 102.429244 
L 129.263106 102.32706 
L 129.610593 101.785706 
L 129.958079 101.785706 
L 130.131823 101.386819 
L 130.305566 101.36437 
L 130.421395 101.784995 
L 130.768882 101.737036 
L 131.00054 101.56377 
L 131.637599 101.56377 
L 131.869257 103.69092 
L 133.027546 103.662387 
L 133.08546 103.968288 
L 133.201289 105.250099 
L 133.548776 105.217558 
L 133.780434 104.947245 
L 134.417493 104.947245 
L 134.707065 106.614408 
L 134.880808 106.561228 
L 135.170381 106.138109 
L 135.517867 106.138109 
L 135.749525 105.732707 
L 135.865354 105.732707 
L 135.981183 106.315752 
L 136.270755 106.206971 
L 136.560328 105.735807 
L 136.8499 105.668721 
L 136.965729 105.320391 
L 137.139472 105.055927 
L 137.255301 105.055927 
L 137.37113 105.49134 
L 137.602788 105.450843 
L 137.950275 104.804538 
L 138.297761 104.804538 
L 138.587334 104.397078 
L 138.645248 104.397078 
L 138.761077 104.602503 
L 138.992735 104.579929 
L 139.340221 104.098751 
L 139.687708 104.098751 
L 139.919366 103.701809 
L 140.035195 103.701809 
L 140.151024 104.388026 
L 140.440596 104.37986 
L 140.730168 104.0225 
L 141.367227 104.0225 
L 141.6568 105.655263 
L 141.946372 105.558695 
L 142.120115 105.459287 
L 142.409688 105.459287 
L 142.525517 105.69777 
L 142.757174 105.69777 
L 142.988832 108.108206 
L 143.22049 108.097373 
L 143.510062 107.609607 
L 144.205036 107.609607 
L 144.320865 108.08131 
L 144.494608 108.08131 
L 144.957924 107.135139 
L 145.131667 107.035509 
L 145.421239 106.595488 
L 145.594983 106.533476 
L 145.884555 106.457305 
L 146.289956 105.470111 
L 146.521614 105.36913 
L 146.98493 104.806024 
L 147.158673 104.866071 
L 147.274502 104.848268 
L 147.679903 103.938732 
L 147.911561 103.890334 
L 148.085304 103.769265 
L 148.201133 103.703942 
L 148.374877 103.656411 
L 148.54862 103.818457 
L 148.722363 103.737869 
L 149.06985 103.185084 
L 149.301508 103.185084 
L 149.764824 102.272213 
L 149.880653 102.88918 
L 150.170225 102.792664 
L 150.459797 102.370573 
L 150.749369 102.272806 
L 150.807284 102.235418 
L 151.038942 101.637173 
L 151.154771 101.637173 
L 151.2706 102.201326 
L 151.502257 102.201326 
L 151.849744 101.671799 
L 152.255145 101.585945 
L 152.428889 101.334795 
L 152.544718 101.334795 
L 152.660547 102.097374 
L 152.950119 102.008839 
L 153.239691 101.564207 
L 153.703007 101.528423 
L 153.87675 101.409556 
L 153.934665 101.409556 
L 154.050494 102.011927 
L 154.282151 101.989219 
L 154.629638 101.360037 
L 154.861296 101.360037 
L 155.208783 100.83234 
L 155.324612 100.83234 
L 155.44044 101.173711 
L 155.672098 101.0695 
L 156.019585 100.404229 
L 156.251243 100.404229 
L 156.540815 99.840102 
L 156.714559 99.806744 
L 156.830387 100.16205 
L 157.062045 100.053243 
L 157.409532 99.370048 
L 157.757019 99.31619 
L 158.046591 98.995662 
L 158.104505 98.995662 
L 158.220334 99.321037 
L 158.451992 99.250864 
L 158.799479 98.691964 
L 159.031137 98.691964 
L 159.436538 97.837439 
L 159.494452 97.837439 
L 159.610281 98.562419 
L 159.841939 98.562419 
L 160.189426 97.982221 
L 160.884399 97.89612 
L 161.000228 98.443486 
L 161.231886 98.340038 
L 161.579373 97.575382 
L 162.042689 97.481834 
L 162.274346 97.374451 
L 162.44809 97.503477 
L 162.563919 97.493524 
L 162.96932 96.64665 
L 163.200978 96.584088 
L 163.49055 95.976498 
L 163.664293 95.937847 
L 163.780122 96.294007 
L 164.01178 96.225789 
L 164.359267 95.58462 
L 164.590925 95.570627 
L 164.938411 94.77644 
L 165.05424 94.77644 
L 165.170069 95.061793 
L 165.343813 95.061793 
L 165.749214 94.262879 
L 165.980872 94.194734 
L 166.270444 93.370177 
L 166.444187 93.331389 
L 166.560016 93.667427 
L 166.791674 93.56934 
L 167.139161 92.916964 
L 167.312904 92.916964 
L 167.486648 92.460061 
L 167.718305 91.768272 
L 167.834134 91.768272 
L 167.949963 92.081335 
L 168.181621 91.985655 
L 168.529108 91.397499 
L 168.760766 91.353863 
L 169.050338 90.376213 
L 169.224081 90.352473 
L 169.33991 90.898591 
L 169.629482 90.856092 
L 169.919055 90.556078 
L 170.614028 90.454323 
L 170.729857 91.58326 
L 171.077344 91.560726 
L 171.309002 91.347563 
L 171.656488 91.301408 
L 171.946061 90.986902 
L 172.003975 90.986902 
L 172.119804 91.934929 
L 172.409376 91.85921 
L 172.698949 91.42032 
L 173.393922 91.42032 
L 173.509751 92.297434 
L 173.741409 92.233794 
L 174.088896 91.603367 
L 174.320553 91.519282 
L 174.66804 90.676586 
L 174.783869 90.676586 
L 174.899698 91.285041 
L 175.131356 91.255317 
L 175.478843 90.640559 
L 175.652586 90.640559 
L 176.173816 89.45401 
L 176.289645 89.871432 
L 176.521303 89.773122 
L 176.86879 89.157754 
L 177.042533 89.157754 
L 177.563763 87.983143 
L 177.679592 88.630448 
L 177.969164 88.524018 
L 178.258736 88.110269 
L 178.43248 88.110269 
L 178.95371 86.966762 
L 179.069539 87.433779 
L 179.301197 87.412091 
L 179.648683 86.914352 
L 179.880341 86.899051 
L 180.169914 86.091229 
L 180.343657 86.082298 
L 180.459486 86.763545 
L 180.749058 86.702944 
L 181.03863 86.33819 
L 181.270288 86.33819 
L 181.617775 85.663686 
L 181.733604 85.663686 
L 181.849433 86.680693 
L 182.139005 86.645299 
L 182.428577 86.236861 
L 182.776064 86.189553 
L 183.007722 85.684842 
L 183.123551 85.684842 
L 183.23938 86.391276 
L 183.471038 86.383075 
L 183.818524 85.766503 
L 183.992268 85.766503 
L 184.397669 84.840563 
L 184.513498 84.840563 
L 184.629327 85.236072 
L 184.80307 85.236072 
L 185.3243 84.436879 
L 185.382215 84.40423 
L 185.555958 84.002781 
L 185.671787 84.002781 
L 185.84553 83.797422 
L 185.903445 83.797422 
L 186.019274 84.099842 
L 186.193017 84.099842 
L 186.656333 83.244321 
L 187.293392 83.244321 
L 187.409221 83.666313 
L 187.582964 83.666313 
L 188.04628 82.844217 
L 188.162109 82.772583 
L 188.393766 82.297576 
L 188.56751 82.07567 
L 188.683339 82.07567 
L 188.799168 82.440422 
L 189.030825 82.354299 
L 189.378312 81.796359 
L 189.552056 81.796359 
L 189.725799 81.424974 
L 189.783713 81.424974 
L 190.015371 81.14763 
L 190.073286 81.14763 
L 190.189115 81.840872 
L 190.420772 81.840784 
L 190.768259 81.292044 
L 191.463233 81.255942 
L 191.579062 81.955792 
L 191.810719 81.940783 
L 192.158206 81.372747 
L 192.621522 81.299645 
L 192.85318 81.239867 
L 192.969009 81.869673 
L 193.200666 81.797483 
L 193.548153 81.087695 
L 193.721896 81.036669 
L 194.069383 80.016558 
L 194.243127 79.979917 
L 194.358955 80.448526 
L 194.590613 80.34815 
L 194.9381 79.652332 
L 195.343501 79.650743 
L 195.517245 79.306527 
L 195.633074 79.306527 
L 195.748902 79.65269 
L 195.922646 79.65269 
L 196.328047 78.743071 
L 196.50179 78.693763 
L 196.965106 77.520799 
L 197.02302 77.520799 
L 197.138849 77.777131 
L 197.312593 77.777131 
L 197.717994 76.985185 
L 197.891737 76.920409 
L 198.297139 76.318037 
L 198.412967 76.318037 
L 198.528796 76.856069 
L 198.760454 76.802337 
L 199.107941 76.203939 
L 199.802914 76.156632 
L 199.918743 76.96882 
L 200.150401 76.960495 
L 200.497888 76.441329 
L 200.671631 76.440096 
L 200.903289 76.049881 
L 201.192861 76.049881 
L 201.30869 76.905862 
L 201.540348 76.905862 
L 201.887835 76.339059 
L 202.061578 76.328878 
L 202.409065 75.472951 
L 202.582808 75.441927 
L 202.698637 76.034562 
L 202.930295 76.000369 
L 203.277782 75.374629 
L 203.972755 75.275003 
L 204.088584 75.73365 
L 204.320242 75.634271 
L 204.667729 74.934374 
L 204.783558 74.934374 
L 205.362702 73.709928 
L 205.478531 73.99522 
L 205.710189 73.892091 
L 206.057676 73.303161 
L 206.231419 73.254034 
L 206.578906 72.212346 
L 206.752649 72.17489 
L 206.868478 72.86158 
L 207.15805 72.838617 
L 207.447623 72.527036 
L 208.084682 72.527036 
L 208.142596 72.873263 
L 208.258425 74.12698 
L 208.605912 74.11185 
L 208.83757 73.891523 
L 209.011313 73.891523 
L 209.416714 73.281965 
L 209.532543 73.281965 
L 209.648372 74.326824 
L 209.995859 74.298672 
L 210.227517 74.0705 
L 210.864576 74.0705 
L 211.096233 75.876279 
L 211.327891 75.791202 
L 211.617464 75.319791 
L 211.791207 75.213833 
L 212.138694 74.250494 
L 212.312437 74.205349 
L 212.428266 74.771407 
L 212.659924 74.696121 
L 213.007411 73.981975 
L 213.123239 73.981975 
L 213.586555 72.525666 
L 213.702384 72.525666 
L 213.876127 72.683084 
L 213.991956 72.646219 
L 214.397358 71.634115 
L 214.571101 71.590412 
L 215.092331 71.038331 
L 215.381903 71.003219 
L 215.787304 70.191447 
L 215.903133 70.191447 
L 216.424364 69.104147 
L 216.482278 69.104147 
L 216.598107 69.497965 
L 216.829765 69.413008 
L 217.177251 68.765412 
L 217.29308 68.765412 
L 217.756396 67.652752 
L 217.872225 67.652752 
L 217.988054 68.123771 
L 218.219712 68.039585 
L 218.567198 67.335637 
L 218.683027 67.335637 
L 219.088429 66.014325 
L 219.262172 65.958442 
L 219.378001 66.295416 
L 219.609659 66.187504 
L 219.957145 65.486308 
L 220.072974 65.486308 
L 220.478375 64.029469 
L 220.652119 63.968172 
L 220.767948 64.287415 
L 220.999606 64.181274 
L 221.405007 63.515581 
L 221.462921 63.515581 
L 221.868322 62.293456 
L 222.042066 62.239876 
L 222.157895 62.54834 
L 222.331638 62.54834 
L 223.316184 60.837463 
L 223.432013 60.837463 
L 223.547842 61.098883 
L 223.721585 61.098883 
L 224.184901 60.252028 
L 224.30073 60.142188 
L 224.532387 59.871845 
L 224.764045 59.583843 
L 224.82196 59.583843 
L 224.937789 59.797939 
L 225.169446 59.699107 
L 225.516933 59.066727 
L 225.748591 58.976551 
L 225.922334 58.899745 
L 226.211907 58.804998 
L 226.327736 59.259231 
L 226.559393 59.227385 
L 226.90688 58.614271 
L 227.312281 58.554796 
L 227.543939 58.242408 
L 227.601854 58.242408 
L 227.717683 58.74287 
L 227.94934 58.731051 
L 228.296827 58.065296 
L 228.412656 58.056353 
L 228.818057 56.725763 
L 228.991801 56.667744 
L 229.10763 57.022992 
L 229.339287 56.99165 
L 229.686774 56.426342 
L 229.802603 56.426342 
L 230.208004 55.630826 
L 230.381748 55.603158 
L 230.497577 56.196163 
L 230.787149 56.125173 
L 231.076721 55.740914 
L 231.771695 55.671205 
L 231.887523 56.384869 
L 232.177096 56.347993 
L 232.466668 55.92394 
L 233.161642 55.877344 
L 233.27747 56.673353 
L 233.567043 56.603839 
L 233.856615 56.181065 
L 234.030358 56.108668 
L 234.377845 55.26851 
L 234.551588 55.23461 
L 234.667417 55.864038 
L 234.95699 55.799846 
L 235.246562 55.383838 
L 235.362391 55.383838 
L 235.825707 54.1603 
L 235.941535 54.1603 
L 236.057364 54.779362 
L 236.346937 54.691102 
L 236.636509 54.228105 
L 236.868167 54.126198 
L 237.273568 53.547907 
L 237.331482 53.547907 
L 237.447311 54.016294 
L 237.736884 53.951121 
L 238.026456 53.572818 
L 238.200199 53.477041 
L 238.489772 53.006194 
L 238.663515 52.873191 
L 238.721429 52.873191 
L 238.837258 53.583692 
L 239.184745 53.477159 
L 239.416403 53.210691 
L 240.053462 53.210691 
L 240.111376 53.538483 
L 240.227205 54.721101 
L 240.574692 54.617352 
L 240.80635 54.347675 
L 241.443409 54.347675 
L 241.675067 56.332623 
L 241.964639 56.240238 
L 242.196297 55.982926 
L 242.833356 55.982926 
L 243.065014 57.881105 
L 243.296671 57.876854 
L 243.586244 57.480517 
L 243.817902 57.389613 
L 244.049559 57.343463 
L 244.281217 57.343463 
L 244.397046 58.17326 
L 244.686618 58.112159 
L 244.976191 57.683757 
L 245.671164 57.683757 
L 245.786993 58.537963 
L 246.076565 58.438978 
L 246.366138 57.976206 
L 246.539881 57.890745 
L 246.887368 57.322471 
L 247.061111 57.269035 
L 247.17694 57.732465 
L 247.408598 57.727911 
L 247.756085 57.109988 
L 247.871914 57.096572 
L 248.2194 56.163948 
L 248.393144 55.993178 
L 248.451058 55.993178 
L 248.566887 56.377181 
L 248.798545 56.337609 
L 249.146032 55.668009 
L 249.261861 55.650575 
L 249.609347 54.732444 
L 249.783091 54.535605 
L 249.841005 54.535605 
L 249.956834 54.77268 
L 250.188492 54.670635 
L 250.535979 53.92255 
L 250.593893 53.92255 
L 251.288867 52.595681 
L 251.520524 52.595681 
L 251.925926 51.658777 
L 251.98384 51.658777 
L 252.620899 49.910936 
L 252.910471 49.880863 
L 253.315873 48.90612 
L 253.431701 48.903216 
L 253.663359 48.619124 
L 253.779188 48.31569 
L 253.952932 48.038143 
L 254.300418 47.993237 
L 254.705819 47.103407 
L 254.821648 47.089072 
L 255.053306 46.832679 
L 255.169135 46.786286 
L 255.342878 46.577827 
L 255.74828 46.481832 
L 256.095766 45.742529 
L 256.153681 45.742529 
L 256.79074 44.084177 
L 257.080312 44.091263 
L 257.485713 43.131059 
L 257.601542 43.107155 
L 257.8332 42.745557 
L 257.949029 42.745557 
L 258.122772 42.520053 
L 258.470259 42.46251 
L 258.87566 41.48908 
L 258.991489 41.448399 
L 259.223147 40.755815 
L 259.338976 40.735289 
L 259.512719 40.487976 
L 259.860206 40.422941 
L 260.265607 39.40958 
L 260.323522 39.40958 
L 260.671009 38.565141 
L 261.018495 38.293786 
L 261.250153 38.182942 
L 261.655554 37.131908 
L 261.713469 37.120698 
L 262.234699 35.427078 
L 262.466357 35.390444 
L 262.582186 35.390444 
L 263.392988 33.332727 
L 522.27061 33.332727 
L 522.386439 33.791149 
L 522.618097 33.780611 
L 522.907669 33.332727 
L 563.969019 33.332727 
L 564.084848 34.347583 
L 564.316506 34.347583 
L 564.663992 33.663738 
L 564.837736 33.621998 
L 565.011479 33.332727 
L 566.748913 33.332727 
L 566.864742 33.532327 
L 567.154314 33.477634 
L 567.328057 33.332727 
L 572.308701 33.332727 
L 572.42453 34.031912 
L 572.656187 34.00658 
L 573.003674 33.332727 
L 595.937799 33.332727 
L 596.053628 33.651343 
L 596.285286 33.650272 
L 596.516944 33.332727 
L 597.327746 33.332727 
L 597.443575 33.70294 
L 597.675233 33.664589 
L 597.906891 33.332727 
L 608.447322 33.332727 
L 608.563151 33.685249 
L 608.910637 33.635517 
L 609.142295 33.389582 
L 609.837269 33.389582 
L 609.953098 33.979237 
L 610.358499 33.907838 
L 610.532242 33.774106 
L 611.169301 33.774106 
L 611.400959 35.612467 
L 611.632617 35.612467 
L 611.922189 35.144014 
L 613.080478 35.033375 
L 613.312136 34.794541 
L 614.00711 34.799605 
L 614.122938 35.963186 
L 614.586254 35.871202 
L 614.817912 35.833513 
L 615.107484 35.937991 
L 615.339142 36.254466 
L 615.5708 38.486353 
L 616.381602 38.418004 
L 616.555346 38.929663 
L 616.729089 39.218604 
L 616.960747 41.48051 
L 618.119036 41.462932 
L 618.350694 43.785103 
L 619.161496 43.785103 
L 619.33524 44.856694 
L 619.508983 45.288691 
L 619.740641 47.64119 
L 620.551443 47.64119 
L 620.667272 48.049049 
L 620.783101 48.155394 
L 620.89893 48.518815 
L 621.130588 50.89512 
L 621.94139 50.934605 
L 622.115134 52.345771 
L 622.288877 52.87919 
L 622.520535 55.305838 
L 622.636364 55.351539 
L 622.636364 55.351539 
" style="fill:none;stroke:#1f77b4;stroke-linecap:square;stroke-width:1.5;"/>
   </g>
   <g id="line2d_12">
    <path clip-path="url(#p5b633f754d)" d="M 115.363636 94.609897 
L 115.711123 94.364802 
L 116.000695 94.364802 
L 116.116524 94.796831 
L 116.232353 94.844539 
L 116.348182 95.317278 
L 116.57984 97.781643 
L 117.216899 97.87775 
L 117.390642 98.377338 
L 117.506471 98.985539 
L 117.6223 99.049584 
L 117.738129 99.563546 
L 117.969787 102.065923 
L 118.722675 102.065923 
L 118.954333 102.446067 
L 119.070162 102.446067 
L 119.128076 102.739575 
L 119.359734 105.160935 
L 119.707221 105.074707 
L 119.880964 104.912953 
L 120.518023 104.912953 
L 120.749681 106.66455 
L 121.039253 106.575811 
L 121.270911 106.31871 
L 121.965884 106.31871 
L 122.081713 107.077654 
L 122.4292 107.002198 
L 122.660858 106.752137 
L 123.297917 106.752137 
L 123.355831 107.053424 
L 123.47166 108.22088 
L 123.761233 108.191166 
L 124.050805 107.749686 
L 124.745778 107.749686 
L 124.861607 108.647569 
L 125.093265 108.615205 
L 125.440752 107.916912 
L 125.788239 107.832321 
L 126.019896 107.455307 
L 126.425298 107.472916 
L 126.888613 106.548155 
L 127.004442 106.498516 
L 127.178186 106.279722 
L 127.409843 105.73209 
L 127.873159 105.489256 
L 128.220646 104.736995 
L 128.452304 104.644975 
L 128.973534 104.13569 
L 129.263106 104.039702 
L 129.610593 103.501952 
L 129.958079 103.501952 
L 130.189737 103.19351 
L 130.305566 103.19351 
L 130.421395 103.635742 
L 130.768882 103.592704 
L 131.00054 103.422743 
L 131.637599 103.473208 
L 131.869257 105.938789 
L 133.027546 105.921571 
L 133.259204 107.961217 
L 133.548776 107.935991 
L 133.780434 107.6698 
L 134.417493 107.6698 
L 134.64915 109.497018 
L 134.880808 109.450484 
L 135.170381 109.032761 
L 135.575782 108.964876 
L 135.749525 108.757304 
L 135.865354 108.757304 
L 135.981183 109.377583 
L 136.270755 109.276311 
L 136.560328 108.810402 
L 136.907814 108.739428 
L 137.139472 108.278161 
L 137.255301 108.278161 
L 137.37113 108.752556 
L 137.602788 108.717994 
L 137.950275 108.07823 
L 138.355676 108.038343 
L 138.529419 107.761982 
L 138.645248 107.761982 
L 138.761077 108.000616 
L 138.992735 107.982345 
L 139.340221 107.506571 
L 139.745623 107.485421 
L 139.919366 107.262761 
L 140.035195 107.262761 
L 140.151024 107.984821 
L 140.498511 107.877332 
L 140.730168 107.629313 
L 141.367227 107.629313 
L 141.598885 109.521496 
L 141.946372 109.431058 
L 142.120115 109.334484 
L 142.409688 109.334484 
L 142.525517 109.743863 
L 142.69926 109.743863 
L 142.757174 109.869409 
L 142.988832 112.314015 
L 143.22049 112.309078 
L 143.510062 111.826604 
L 144.205036 111.826604 
L 144.320865 112.465142 
L 144.494608 112.465142 
L 144.957924 111.526878 
L 145.131667 111.445432 
L 145.479154 111.011661 
L 145.884555 110.948776 
L 146.289956 109.966492 
L 146.521614 109.884717 
L 146.98493 109.403624 
L 147.158673 109.507132 
L 147.274502 109.493985 
L 147.679903 108.593334 
L 147.911561 108.567608 
L 148.085304 108.463366 
L 148.374877 108.369396 
L 148.490706 108.579177 
L 148.722363 108.505575 
L 149.06985 107.960559 
L 149.417337 107.860841 
L 149.648995 107.256345 
L 149.764824 107.256345 
L 149.880653 107.925503 
L 150.170225 107.836649 
L 150.459797 107.420496 
L 150.807284 107.387243 
L 151.038942 106.873366 
L 151.154771 106.873366 
L 151.2706 107.485489 
L 151.560172 107.374984 
L 151.849744 106.964648 
L 152.31306 106.872511 
L 152.486803 106.778779 
L 152.544718 106.778779 
L 152.660547 107.607039 
L 152.950119 107.525399 
L 153.239691 107.087402 
L 153.934665 107.040655 
L 154.050494 107.700783 
L 154.282151 107.68467 
L 154.629638 107.064708 
L 154.977125 106.988581 
L 155.324612 106.673723 
L 155.44044 107.070293 
L 155.672098 106.970734 
L 156.019585 106.313039 
L 156.367072 106.217977 
L 156.714559 105.862109 
L 156.830387 106.276937 
L 157.062045 106.173062 
L 157.409532 105.49694 
L 157.814933 105.440444 
L 158.046591 105.228993 
L 158.104505 105.228993 
L 158.220334 105.613919 
L 158.451992 105.547904 
L 158.799479 104.995382 
L 159.146966 104.928139 
L 159.378624 104.360486 
L 159.494452 104.360486 
L 159.610281 105.155053 
L 159.841939 105.155053 
L 160.24734 104.590796 
L 160.884399 104.590796 
L 161.000228 105.230669 
L 161.231886 105.133633 
L 161.579373 104.37936 
L 162.100603 104.284386 
L 162.274346 104.232747 
L 162.390175 104.432324 
L 162.563919 104.429789 
L 162.96932 103.600187 
L 163.200978 103.584738 
L 163.49055 103.083432 
L 163.664293 103.04981 
L 163.780122 103.493991 
L 164.01178 103.441363 
L 164.359267 102.81587 
L 164.590925 102.81587 
L 164.996326 102.173724 
L 165.05424 102.173724 
L 165.170069 102.535383 
L 165.343813 102.535383 
L 165.749214 101.75834 
L 165.980872 101.737579 
L 166.270444 101.056302 
L 166.444187 101.022027 
L 166.560016 101.439797 
L 166.791674 101.352431 
L 167.139161 100.713945 
L 167.370819 100.653531 
L 167.660391 99.821852 
L 167.834134 99.788358 
L 167.949963 100.183211 
L 168.181621 100.096618 
L 168.529108 99.52451 
L 168.760766 99.52451 
L 169.050338 98.733315 
L 169.224081 98.714973 
L 169.33991 99.358362 
L 169.629482 99.332531 
L 169.919055 99.047667 
L 170.556114 99.047667 
L 170.614028 99.268948 
L 170.729857 100.531428 
L 171.135258 100.437934 
L 171.309002 100.327855 
L 171.772317 100.236507 
L 171.946061 100.16582 
L 172.003975 100.16582 
L 172.119804 101.229389 
L 172.409376 101.166231 
L 172.698949 100.741843 
L 173.336008 100.741843 
L 173.393922 100.896071 
L 173.509751 101.995667 
L 173.741409 101.940388 
L 174.088896 101.323329 
L 174.320553 101.305416 
L 174.66804 100.631668 
L 174.783869 100.631668 
L 174.899698 101.352405 
L 175.131356 101.337473 
L 175.478843 100.740474 
L 175.7105 100.658754 
L 176.000073 99.831662 
L 176.173816 99.8044 
L 176.289645 100.325645 
L 176.521303 100.237166 
L 176.86879 99.641278 
L 177.100447 99.571639 
L 177.39002 98.754104 
L 177.563763 98.742257 
L 177.679592 99.52841 
L 177.969164 99.450924 
L 178.258736 99.061493 
L 178.490394 98.9995 
L 178.779967 98.207125 
L 178.95371 98.179512 
L 179.069539 98.768959 
L 179.301197 98.761407 
L 179.648683 98.283785 
L 179.99617 98.176208 
L 180.285742 97.705412 
L 180.343657 97.705412 
L 180.459486 98.501927 
L 180.749058 98.451902 
L 181.03863 98.097455 
L 181.386117 98.05941 
L 181.675689 97.680814 
L 181.733604 97.680814 
L 181.849433 98.855921 
L 182.139005 98.836313 
L 182.428577 98.444969 
L 182.833979 98.390682 
L 183.007722 98.109953 
L 183.123551 98.109953 
L 183.23938 98.950302 
L 183.471038 98.950302 
L 183.818524 98.362531 
L 184.050182 98.264403 
L 184.339754 97.696039 
L 184.513498 97.672291 
L 184.629327 98.196856 
L 184.860985 98.096662 
L 185.208471 97.425962 
L 185.382215 97.425962 
L 185.613872 97.110688 
L 185.671787 97.110688 
L 185.84553 96.961734 
L 185.903445 96.961734 
L 186.019274 97.393554 
L 186.193017 97.393554 
L 186.656333 96.560207 
L 187.293392 96.560207 
L 187.409221 97.377647 
L 187.582964 97.377647 
L 188.104194 96.577875 
L 188.162109 96.562126 
L 188.335852 96.242865 
L 188.683339 96.010407 
L 188.799168 96.505721 
L 189.030825 96.425971 
L 189.378312 95.881837 
L 189.60997 95.794519 
L 189.783713 95.651512 
L 190.073286 95.46649 
L 190.189115 96.294933 
L 190.420772 96.294933 
L 190.768259 95.769472 
L 191.463233 95.82998 
L 191.579062 96.972811 
L 191.810719 96.964914 
L 192.158206 96.414256 
L 192.85318 96.414256 
L 192.969009 97.218242 
L 193.200666 97.152368 
L 193.548153 96.451384 
L 193.721896 96.451384 
L 194.069383 95.632684 
L 194.243127 95.605466 
L 194.358955 96.227091 
L 194.590613 96.138865 
L 194.9381 95.458847 
L 195.401416 95.402951 
L 195.575159 95.252532 
L 195.633074 95.252532 
L 195.748902 95.742286 
L 195.922646 95.742286 
L 196.328047 94.851514 
L 196.50179 94.850101 
L 196.965106 93.887619 
L 197.02302 93.887619 
L 197.138849 94.291924 
L 197.312593 94.291924 
L 197.775908 93.515398 
L 197.949652 93.421478 
L 198.123395 93.19791 
L 198.412967 93.06717 
L 198.528796 93.756637 
L 198.760454 93.709935 
L 199.107941 93.125514 
L 199.802914 93.125514 
L 199.918743 94.431456 
L 200.150401 94.430188 
L 200.497888 93.926874 
L 200.729546 93.854314 
L 200.903289 93.698164 
L 201.192861 93.732394 
L 201.30869 94.911693 
L 201.540348 94.911693 
L 201.887835 94.374086 
L 202.119493 94.269637 
L 202.409065 93.7707 
L 202.582808 93.751947 
L 202.698637 94.508593 
L 202.930295 94.488453 
L 203.277782 93.88467 
L 203.972755 93.88467 
L 204.088584 94.645344 
L 204.320242 94.558296 
L 204.667729 93.877906 
L 204.841472 93.798118 
L 205.188959 92.976885 
L 205.362702 92.931914 
L 205.478531 93.383521 
L 205.710189 93.288141 
L 206.057676 92.711977 
L 206.231419 92.711977 
L 206.63682 91.905997 
L 206.752649 91.905997 
L 206.868478 92.775163 
L 207.215965 92.677128 
L 207.447623 92.478196 
L 208.084682 92.574691 
L 208.31634 94.954167 
L 208.663826 94.877781 
L 208.83757 94.768447 
L 209.069227 94.768447 
L 209.300885 94.541407 
L 209.474629 94.450848 
L 209.532543 94.459688 
L 209.648372 95.755483 
L 210.053773 95.670332 
L 210.227517 95.557336 
L 210.806661 95.557336 
L 210.864576 95.721112 
L 211.096233 98.112918 
L 211.327891 98.046914 
L 211.617464 97.594504 
L 211.791207 97.572807 
L 212.138694 96.820077 
L 212.312437 96.790977 
L 212.428266 97.558587 
L 212.659924 97.50238 
L 213.007411 96.81643 
L 213.123239 96.81643 
L 213.64447 95.670176 
L 213.702384 95.670176 
L 213.818213 96.019752 
L 213.991956 95.99185 
L 214.397358 94.997292 
L 214.629015 94.930705 
L 215.092331 94.560979 
L 215.20816 94.761589 
L 215.381903 94.727062 
L 215.787304 93.935061 
L 215.961048 93.865449 
L 216.308535 93.170825 
L 216.482278 93.136099 
L 216.598107 93.726931 
L 216.829765 93.651383 
L 217.177251 93.017223 
L 217.350995 92.935177 
L 217.640567 92.35248 
L 217.81431 92.213061 
L 217.872225 92.213061 
L 217.988054 92.886385 
L 218.219712 92.811003 
L 218.567198 92.118209 
L 218.683027 92.118209 
L 219.204257 91.065299 
L 219.262172 91.065299 
L 219.378001 91.610978 
L 219.609659 91.512648 
L 219.957145 90.822521 
L 220.072974 90.822521 
L 220.594204 89.64762 
L 220.652119 89.64762 
L 220.767948 90.182256 
L 220.999606 90.08563 
L 221.926237 88.482217 
L 222.042066 88.482217 
L 222.157895 89.011249 
L 222.389553 88.909842 
L 222.737039 88.205831 
L 222.910783 88.10386 
L 223.084526 87.848285 
L 223.142441 87.848285 
L 223.374098 87.575783 
L 223.432013 87.575783 
L 223.547842 88.061501 
L 223.721585 88.061501 
L 224.242815 87.241444 
L 224.358644 87.095663 
L 224.532387 87.000033 
L 224.82196 86.793795 
L 224.937789 87.234871 
L 225.169446 87.146722 
L 225.516933 86.528854 
L 226.211907 86.456655 
L 226.327736 87.139492 
L 226.559393 87.118586 
L 226.90688 86.518612 
L 227.370196 86.497614 
L 227.543939 86.363662 
L 227.601854 86.363662 
L 227.717683 87.096831 
L 227.94934 87.096831 
L 228.296827 86.451494 
L 228.412656 86.451494 
L 228.933886 85.402546 
L 228.991801 85.402546 
L 229.10763 85.995879 
L 229.339287 85.975219 
L 229.686774 85.423559 
L 229.860517 85.376003 
L 230.034261 85.097543 
L 230.15009 84.98419 
L 230.323833 84.902532 
L 230.381748 84.902532 
L 230.497577 85.73794 
L 230.787149 85.678827 
L 231.076721 85.315276 
L 231.71378 85.315276 
L 231.771695 85.552844 
L 231.887523 86.751228 
L 232.177096 86.734182 
L 232.466668 86.32298 
L 233.103727 86.32298 
L 233.161642 86.667607 
L 233.27747 87.847417 
L 233.567043 87.790277 
L 233.856615 87.380116 
L 234.030358 87.380116 
L 234.43576 86.76534 
L 234.551588 86.76534 
L 234.667417 87.647183 
L 234.95699 87.595534 
L 235.246562 87.192933 
L 235.420305 87.115454 
L 235.767792 86.362212 
L 235.941535 86.346072 
L 236.057364 87.224804 
L 236.346937 87.151373 
L 236.636509 86.701581 
L 237.04191 86.591978 
L 237.215654 86.300309 
L 237.331482 86.300309 
L 237.447311 87.033175 
L 237.736884 86.981098 
L 238.026456 86.618087 
L 238.258114 86.512081 
L 238.431857 86.394565 
L 238.721429 86.239247 
L 238.837258 87.217904 
L 239.184745 87.125878 
L 239.416403 86.871704 
L 240.053462 86.963003 
L 240.28512 89.299467 
L 240.574692 89.210227 
L 240.80635 88.952866 
L 241.095922 88.952866 
L 241.269665 89.174911 
L 241.385494 89.174911 
L 241.443409 89.460944 
L 241.675067 91.793664 
L 241.964639 91.715717 
L 242.196297 91.471299 
L 242.775441 91.5634 
L 242.833356 91.898708 
L 243.065014 94.265857 
L 243.354586 94.163391 
L 243.586244 93.896431 
L 244.223303 93.896431 
L 244.281217 94.088359 
L 244.397046 95.293024 
L 244.686618 95.246927 
L 244.976191 94.837753 
L 245.61325 94.837753 
L 245.844908 96.571474 
L 246.076565 96.490075 
L 246.366138 96.040823 
L 246.597796 95.93896 
L 246.945282 95.622862 
L 247.061111 95.622862 
L 247.17694 96.3658 
L 247.408598 96.3658 
L 247.756085 95.770891 
L 247.929828 95.659804 
L 248.2194 95.143676 
L 248.393144 95.006784 
L 248.451058 95.006784 
L 248.566887 95.675619 
L 248.798545 95.649286 
L 249.146032 94.995034 
L 249.261861 94.995034 
L 249.725176 94.192444 
L 249.841005 94.192444 
L 249.956834 94.719717 
L 250.188492 94.631001 
L 250.535979 93.898686 
L 250.651807 93.856577 
L 250.94138 93.232636 
L 251.173038 92.8844 
L 251.230952 92.8844 
L 251.346781 93.204577 
L 251.520524 93.204577 
L 251.98384 92.297654 
L 252.099669 91.971251 
L 252.447156 91.006476 
L 252.620899 90.938655 
L 252.736728 91.161193 
L 252.910471 91.157299 
L 253.315873 90.200324 
L 253.489616 90.144433 
L 254.010846 89.593276 
L 254.184589 89.748978 
L 254.300418 89.74389 
L 254.705819 88.872528 
L 254.937477 88.766687 
L 255.400793 88.570703 
L 255.516622 88.914964 
L 255.690365 88.914964 
L 256.79074 86.807096 
L 256.906569 87.108361 
L 257.080312 87.108361 
L 257.543628 86.180591 
L 257.659457 86.106636 
L 257.891115 85.935189 
L 258.006944 85.865961 
L 258.180687 85.79971 
L 258.35443 85.959193 
L 258.470259 85.941563 
L 258.87566 84.997993 
L 258.991489 84.997993 
L 259.281062 84.453752 
L 259.338976 84.453752 
L 259.512719 84.284738 
L 259.918121 84.20768 
L 260.265607 83.389426 
L 260.381436 83.284105 
L 260.613094 82.748611 
L 260.728923 82.728395 
L 260.902666 82.572272 
L 261.250153 82.603288 
L 261.655554 81.584684 
L 261.713469 81.584684 
L 262.408442 80.230806 
L 262.6401 80.130903 
L 263.045501 79.083522 
L 263.103416 79.083522 
L 263.798389 77.902672 
L 264.030047 77.797813 
L 264.435448 76.745757 
L 264.493363 76.745757 
L 265.188336 75.542607 
L 265.419994 75.434503 
L 265.825395 74.390505 
L 265.88331 74.390505 
L 266.520369 73.100789 
L 266.694112 73.156709 
L 266.809941 73.07563 
L 267.215342 72.035903 
L 267.331171 71.974538 
L 267.562829 71.557496 
L 267.620743 71.551355 
L 267.852401 71.198555 
L 268.141973 71.198555 
L 268.373631 70.531045 
L 268.605289 70.046212 
L 268.663204 70.046212 
L 269.300263 68.565513 
L 269.589835 68.491578 
L 269.995236 67.444662 
L 270.053151 67.444662 
L 270.632295 65.904155 
L 270.921867 65.904155 
L 271.21144 65.044253 
L 271.385183 64.730449 
L 271.501012 64.628384 
L 271.73267 64.154524 
L 271.848499 63.986655 
L 272.022242 63.774658 
L 272.311814 63.774658 
L 272.543472 63.105222 
L 272.77513 62.604373 
L 272.833044 62.604373 
L 273.470103 61.198635 
L 273.701761 61.198635 
L 273.991334 60.3359 
L 274.165077 60.020663 
L 274.222991 60.020663 
L 274.802136 58.532903 
L 275.091708 58.532903 
L 275.381281 57.660279 
L 275.555024 57.341498 
L 275.612938 57.341498 
L 276.192083 56.222145 
L 276.481655 56.222145 
L 277.58203 53.94793 
L 277.871602 53.94793 
L 278.161174 53.075769 
L 278.334918 52.758774 
L 278.450747 52.708228 
L 278.682405 52.400789 
L 278.798234 52.349487 
L 278.971977 52.136782 
L 279.261549 52.136782 
L 280.361924 49.842653 
L 280.709411 49.762555 
L 281.114812 48.72438 
L 281.172726 48.72438 
L 281.751871 47.353941 
L 282.041443 47.353941 
L 283.083903 45.090018 
L 283.489305 44.931565 
L 283.894706 43.865539 
L 283.95262 43.865539 
L 284.531765 42.350545 
L 284.821337 42.350545 
L 285.747968 40.345485 
L 285.921712 40.102321 
L 286.211284 40.102321 
L 287.137915 38.076709 
L 287.369573 37.902067 
L 287.601231 37.902067 
L 288.469948 36.012625 
L 288.75952 35.652962 
L 288.991178 35.652962 
L 289.975724 33.332727 
L 522.27061 33.332727 
L 522.386439 33.833391 
L 522.618097 33.822852 
L 522.907669 33.332727 
L 563.969019 33.332727 
L 564.084848 34.36025 
L 564.316506 34.36025 
L 564.663992 33.676405 
L 564.837736 33.638005 
L 565.011479 33.332727 
L 566.748913 33.332727 
L 566.864742 33.532327 
L 567.154314 33.477634 
L 567.328057 33.332727 
L 572.308701 33.332727 
L 572.42453 34.064047 
L 572.656187 34.038715 
L 573.003674 33.332727 
L 586.20817 33.332727 
L 586.381914 33.460745 
L 586.613571 33.358226 
L 586.903144 33.332727 
L 587.598117 33.332727 
L 587.771861 33.509838 
L 587.945604 33.509838 
L 588.119347 33.332727 
L 588.988064 33.332727 
L 589.103893 33.64578 
L 589.335551 33.64578 
L 589.567209 33.332727 
L 590.378011 33.332727 
L 590.49384 33.599844 
L 590.725498 33.599844 
L 590.957156 33.332727 
L 594.547852 33.332727 
L 594.663681 33.625226 
L 594.895339 33.625226 
L 595.126997 33.332727 
L 595.879885 33.332727 
L 595.937799 33.592487 
L 596.053628 34.677871 
L 596.3432 34.613551 
L 596.632773 34.207598 
L 597.269832 34.207598 
L 597.559404 35.845532 
L 597.675233 35.845532 
L 598.080634 35.228612 
L 598.370206 35.161749 
L 598.601864 34.926617 
L 598.717693 34.926617 
L 598.891436 35.108186 
L 599.06518 35.094663 
L 599.412666 34.546499 
L 600.10764 34.546499 
L 600.223469 34.981079 
L 600.513041 34.889404 
L 600.802613 34.450792 
L 601.497587 34.450792 
L 601.613416 35.307124 
L 601.845074 35.272939 
L 602.19256 34.577786 
L 602.71379 34.470242 
L 602.887534 34.432794 
L 603.061277 34.615191 
L 603.235021 34.52883 
L 603.582507 33.830981 
L 604.567053 33.821704 
L 604.856625 33.332727 
L 607.057375 33.332727 
L 607.173204 33.957427 
L 607.52069 33.861999 
L 607.752348 33.65457 
L 608.331493 33.65457 
L 608.389407 33.995603 
L 608.621065 36.372898 
L 609.72144 36.328605 
L 609.779354 36.645574 
L 610.011012 39.030452 
L 610.821814 38.994812 
L 610.995558 39.927707 
L 611.111387 40.152949 
L 611.227216 41.770027 
L 611.343045 43.113761 
L 611.748446 43.04263 
L 611.922189 42.9044 
L 612.501334 42.993506 
L 612.559248 43.302468 
L 612.790906 45.613472 
L 613.485879 45.640392 
L 613.601708 46.066951 
L 613.775452 46.852546 
L 613.891281 47.244069 
L 614.00711 49.037225 
L 614.122938 50.443657 
L 614.644169 50.443657 
L 615.339142 54.245506 
L 615.5708 57.030005 
L 616.034116 57.030005 
L 616.265773 58.167385 
L 616.381602 58.724347 
L 616.555346 60.219215 
L 616.671175 60.660529 
L 616.787003 62.576381 
L 616.902832 64.033159 
L 617.424063 64.046077 
L 617.65572 65.19505 
L 618.119036 67.484427 
L 618.350694 70.343023 
L 618.814009 70.343023 
L 619.045667 71.548754 
L 619.161496 72.127598 
L 619.33524 73.670181 
L 619.451069 74.085214 
L 619.566897 75.977412 
L 619.682726 77.408684 
L 620.203956 77.408684 
L 620.551443 78.756924 
L 620.725187 79.6688 
L 620.841015 80.080893 
L 620.956844 81.999022 
L 621.072673 83.4325 
L 621.593903 83.4325 
L 622.288877 87.876637 
L 622.520535 90.758873 
L 622.578449 90.758873 
L 622.636364 90.94388 
L 622.636364 90.94388 
" style="fill:none;stroke:#ff7f0e;stroke-linecap:square;stroke-width:1.5;"/>
   </g>
   <g id="line2d_13">
    <path clip-path="url(#p5b633f754d)" d="M 115.363636 109.952473 
L 115.711123 109.759025 
L 115.826952 109.865583 
L 115.942781 110.270379 
L 116.174439 111.08189 
L 116.232353 111.132106 
L 116.348182 112.089381 
L 116.57984 114.910024 
L 117.043156 114.910024 
L 117.274813 116.301483 
L 117.738129 118.670327 
L 117.969787 121.604137 
L 118.317274 121.627683 
L 118.433103 121.627683 
L 118.780589 123.184133 
L 118.896418 123.389958 
L 119.012247 123.389958 
L 119.070162 123.532726 
L 119.185991 125.474723 
L 119.301819 126.926872 
L 120.170536 126.865896 
L 120.286365 127.58535 
L 120.460109 127.638812 
L 120.575937 129.289137 
L 120.691766 130.575109 
L 121.097168 130.528166 
L 121.270911 130.433226 
L 121.90797 130.440868 
L 122.139628 132.925723 
L 122.545029 132.816718 
L 122.892516 132.812179 
L 122.95043 132.916658 
L 123.066259 133.398141 
L 123.240002 133.398141 
L 123.297917 133.676013 
L 123.529575 136.193498 
L 123.819147 136.176516 
L 124.050805 135.939579 
L 124.340377 135.939579 
L 124.514121 136.133645 
L 124.629949 136.133645 
L 124.687864 136.358594 
L 124.919522 138.723995 
L 125.15118 138.663048 
L 125.440752 138.236355 
L 125.904068 138.158268 
L 126.077811 138.093154 
L 126.135725 138.093154 
L 126.251554 138.845748 
L 126.483212 138.820258 
L 126.830699 138.191095 
L 127.178186 138.187623 
L 127.351929 137.689341 
L 127.525672 137.660137 
L 127.641501 138.195058 
L 127.873159 138.118097 
L 128.220646 137.501516 
L 128.626047 137.407452 
L 128.79979 137.203246 
L 128.915619 137.203246 
L 129.031448 137.861418 
L 129.32102 137.793301 
L 129.610593 137.485544 
L 130.305566 137.407553 
L 130.421395 138.589497 
L 131.00054 138.589497 
L 131.405941 139.843919 
L 131.579684 139.843919 
L 131.927171 143.609068 
L 132.332572 143.609068 
L 132.506316 144.780757 
L 132.622144 145.143033 
L 132.795888 145.579455 
L 132.969631 145.579455 
L 133.027546 145.698806 
L 133.201289 148.500981 
L 134.070006 148.487286 
L 134.185835 149.299786 
L 134.359578 149.299786 
L 134.475407 151.0665 
L 134.591236 152.398783 
L 134.996637 152.322416 
L 135.170381 152.219584 
L 135.80744 152.219584 
L 135.865354 152.488474 
L 135.981183 153.801859 
L 136.32867 153.750987 
L 136.560328 153.50346 
L 136.965729 153.405637 
L 137.139472 153.198062 
L 137.255301 153.276 
L 137.37113 154.513127 
L 137.660702 154.466818 
L 137.950275 154.068815 
L 138.645248 154.00151 
L 138.761077 154.820996 
L 139.050649 154.781992 
L 139.340221 154.493741 
L 139.803537 154.439562 
L 139.977281 154.382227 
L 140.035195 154.534405 
L 140.151024 155.79438 
L 140.556425 155.690633 
L 140.730168 155.592607 
L 141.019741 155.592607 
L 141.13557 156.020589 
L 141.309313 156.020589 
L 141.367227 156.382295 
L 141.540971 158.870271 
L 142.293859 158.884844 
L 142.409688 159.053074 
L 142.525517 159.976027 
L 142.69926 159.976027 
L 142.815089 161.777287 
L 142.930918 163.181203 
L 143.278405 163.134606 
L 143.510062 162.850612 
L 144.147121 162.850612 
L 144.378779 164.850377 
L 144.552523 164.745296 
L 144.900009 164.019618 
L 145.305411 163.993818 
L 145.594983 163.694888 
L 145.710812 164.172032 
L 145.884555 164.143011 
L 146.289956 163.22411 
L 146.695358 163.22411 
L 146.927015 162.847664 
L 146.98493 162.847664 
L 147.100759 163.49658 
L 147.332417 163.386741 
L 147.679903 162.750053 
L 148.374877 162.750053 
L 148.490706 163.695199 
L 148.780278 163.598896 
L 149.06985 163.254814 
L 149.417337 163.254814 
L 149.648995 162.630985 
L 149.764824 162.713758 
L 149.880653 163.955919 
L 150.170225 163.9484 
L 150.459797 163.595564 
L 150.807284 163.595564 
L 151.096856 163.117504 
L 151.154771 163.117504 
L 151.2706 164.264611 
L 151.560172 164.19259 
L 151.849744 163.825666 
L 152.544718 163.922924 
L 152.660547 165.1829 
L 152.950119 165.162347 
L 153.239691 164.783865 
L 153.87675 164.828312 
L 153.934665 165.235735 
L 154.050494 166.440809 
L 154.340066 166.354467 
L 154.629638 165.940457 
L 155.035039 165.935362 
L 155.266697 165.693698 
L 155.324612 165.693698 
L 155.44044 166.545879 
L 155.672098 166.483149 
L 156.019585 165.886704 
L 156.424986 165.845202 
L 156.59873 165.566801 
L 156.714559 165.566801 
L 156.830387 166.444532 
L 157.062045 166.377478 
L 157.409532 165.754997 
L 157.872848 165.731145 
L 158.046591 165.636366 
L 158.104505 165.636366 
L 158.220334 166.465979 
L 158.451992 166.429431 
L 158.799479 165.923136 
L 159.146966 165.923136 
L 159.378624 165.302066 
L 159.436538 165.302066 
L 159.494452 165.416021 
L 159.610281 166.655975 
L 159.899854 166.59703 
L 160.189426 166.197722 
L 160.826485 166.197722 
L 161.116057 167.866635 
L 161.231886 167.810565 
L 161.579373 167.123784 
L 162.274346 167.123784 
L 162.390175 168.017988 
L 162.621833 167.920672 
L 162.96932 167.345318 
L 163.374721 167.260799 
L 163.548464 166.965884 
L 163.664293 166.965884 
L 163.780122 167.959034 
L 164.069695 167.881399 
L 164.359267 167.473923 
L 164.706754 167.473923 
L 164.996326 166.941212 
L 165.05424 166.941212 
L 165.170069 167.751761 
L 165.401727 167.662582 
L 165.749214 167.101127 
L 166.096701 167.006352 
L 166.328358 166.446062 
L 166.444187 166.446062 
L 166.560016 167.314957 
L 166.791674 167.285602 
L 167.139161 166.722802 
L 167.370819 166.722802 
L 167.718305 165.830844 
L 167.834134 165.830844 
L 167.949963 166.643975 
L 168.181621 166.602631 
L 168.529108 166.11174 
L 168.81868 166.012125 
L 168.876594 165.984956 
L 169.108252 165.338716 
L 169.224081 165.338716 
L 169.33991 166.47071 
L 169.745311 166.370015 
L 169.919055 166.296978 
L 170.150713 166.374901 
L 170.556114 166.374901 
L 170.787772 168.749232 
L 171.772317 168.648329 
L 171.946061 168.572188 
L 172.003975 168.829043 
L 172.119804 170.127539 
L 172.409376 170.11686 
L 172.698949 169.753978 
L 173.336008 169.754419 
L 173.567665 172.02298 
L 173.741409 172.001799 
L 174.088896 171.440206 
L 174.436382 171.356436 
L 174.66804 170.77834 
L 174.783869 170.77834 
L 174.899698 171.985494 
L 175.18927 171.903315 
L 175.478843 171.500813 
L 175.7105 171.497813 
L 176.057987 170.560747 
L 176.173816 170.560747 
L 176.289645 171.465512 
L 176.521303 171.412213 
L 176.86879 170.887499 
L 177.100447 170.887499 
L 177.447934 169.998395 
L 177.563763 170.062162 
L 177.679592 171.321873 
L 178.027079 171.24507 
L 178.258736 171.036979 
L 178.490394 171.036979 
L 178.837881 170.164164 
L 178.95371 170.164164 
L 179.069539 171.148077 
L 179.359111 171.083058 
L 179.648683 170.771437 
L 179.99617 170.729117 
L 180.227828 170.16827 
L 180.343657 170.191798 
L 180.459486 171.385221 
L 180.749058 171.365891 
L 181.03863 171.041869 
L 181.386117 171.041869 
L 181.675689 170.585765 
L 181.733604 170.897596 
L 181.849433 172.205798 
L 182.19692 172.120321 
L 182.428577 171.886745 
L 182.833979 171.882087 
L 183.007722 171.574722 
L 183.123551 171.624531 
L 183.23938 172.84315 
L 183.528952 172.760274 
L 183.818524 172.354492 
L 184.050182 172.317063 
L 184.339754 171.678241 
L 184.513498 171.67273 
L 184.629327 172.531461 
L 184.860985 172.458594 
L 185.208471 171.831983 
L 185.440129 171.72159 
L 185.613872 171.560424 
L 185.671787 171.560424 
L 185.84553 171.418684 
L 185.903445 171.418684 
L 186.019274 172.174261 
L 186.250932 172.069885 
L 186.598418 171.39442 
L 187.235477 171.39442 
L 187.467135 173.040827 
L 187.640878 172.948332 
L 187.988365 172.294633 
L 188.162109 172.294633 
L 188.393766 171.934642 
L 188.56751 171.742405 
L 188.683339 171.742405 
L 188.799168 172.549363 
L 189.030825 172.483753 
L 189.378312 171.97168 
L 189.60997 171.911511 
L 189.783713 171.76134 
L 190.015371 171.541716 
L 190.073286 171.541716 
L 190.189115 172.693709 
L 190.478687 172.599671 
L 190.768259 172.21951 
L 191.405318 172.28867 
L 191.69489 174.006298 
L 191.810719 174.006298 
L 192.158206 173.500344 
L 192.795265 173.500344 
L 192.85318 173.689476 
L 192.969009 174.856865 
L 193.200666 174.803693 
L 193.548153 174.120873 
L 193.721896 174.120873 
L 194.127298 173.227387 
L 194.243127 173.227387 
L 194.358955 174.163774 
L 194.590613 174.099643 
L 194.9381 173.451295 
L 195.401416 173.451295 
L 195.575159 173.319308 
L 195.633074 173.319308 
L 195.748902 174.098316 
L 195.922646 174.098316 
L 196.385961 173.243663 
L 196.559705 173.132911 
L 196.965106 172.224597 
L 197.02302 172.224597 
L 197.138849 172.911352 
L 197.312593 172.911352 
L 197.775908 172.162387 
L 197.949652 172.094584 
L 198.123395 171.820895 
L 198.355053 171.701185 
L 198.412967 171.701185 
L 198.528796 172.678683 
L 198.760454 172.643925 
L 199.107941 172.084295 
L 199.745 172.084295 
L 199.802914 172.526542 
L 199.918743 173.978294 
L 200.150401 173.978294 
L 200.497888 173.513176 
L 200.729546 173.452041 
L 200.903289 173.281855 
L 201.134947 173.281855 
L 201.192861 173.558923 
L 201.30869 174.78523 
L 201.598263 174.67762 
L 201.887835 174.29644 
L 202.119493 174.212349 
L 202.409065 173.62871 
L 202.582808 173.622476 
L 202.698637 174.647357 
L 202.930295 174.647357 
L 203.277782 174.080901 
L 203.914841 174.080901 
L 203.972755 174.287092 
L 204.088584 175.401065 
L 204.320242 175.333063 
L 204.667729 174.683368 
L 204.841472 174.627678 
L 205.188959 173.698938 
L 205.362702 173.66514 
L 205.478531 174.369913 
L 205.710189 174.285497 
L 206.057676 173.728009 
L 206.231419 173.728009 
L 206.694735 172.814585 
L 206.752649 172.814585 
L 206.868478 173.943647 
L 207.215965 173.874559 
L 207.447623 173.698972 
L 207.737195 173.698972 
L 207.853024 174.013619 
L 208.084682 174.013619 
L 208.258425 176.602575 
L 208.663826 176.573522 
L 208.83757 176.484721 
L 209.069227 176.484721 
L 209.3588 176.090021 
L 209.474629 176.090021 
L 209.532543 176.366792 
L 209.648372 177.719558 
L 210.053773 177.688313 
L 210.227517 177.596716 
L 210.517089 177.596716 
L 210.632918 177.795323 
L 210.806661 177.795323 
L 210.864576 178.12211 
L 211.038319 180.643266 
L 211.327891 180.601062 
L 211.617464 180.172696 
L 211.791207 180.167515 
L 212.138694 179.293887 
L 212.312437 179.274207 
L 212.428266 180.286186 
L 212.659924 180.252539 
L 213.007411 179.60032 
L 213.123239 179.60032 
L 213.702384 178.345648 
L 213.818213 178.914268 
L 213.991956 178.896071 
L 214.397358 177.9208 
L 214.802759 177.86456 
L 215.092331 177.521996 
L 215.20816 177.936097 
L 215.381903 177.910288 
L 215.787304 177.139693 
L 215.961048 177.076415 
L 216.308535 176.27412 
L 216.482278 176.247787 
L 216.598107 177.046589 
L 216.829765 176.980353 
L 217.177251 176.359809 
L 217.350995 176.275065 
L 217.640567 175.585141 
L 217.81431 175.444454 
L 217.872225 175.444454 
L 217.988054 176.319122 
L 218.219712 176.251886 
L 218.567198 175.5696 
L 218.683027 175.5696 
L 219.204257 174.377017 
L 219.262172 174.377017 
L 219.378001 175.117175 
L 219.609659 175.027188 
L 219.957145 174.346806 
L 220.072974 174.346806 
L 220.594204 173.010387 
L 220.652119 173.010387 
L 220.767948 173.730978 
L 220.999606 173.642032 
L 222.042066 171.92645 
L 222.157895 172.634936 
L 222.389553 172.540978 
L 222.737039 171.846076 
L 222.910783 171.741826 
L 223.142441 171.436828 
L 223.374098 171.148015 
L 223.432013 171.148015 
L 223.547842 171.808023 
L 223.7795 171.697627 
L 224.126986 171.007807 
L 224.30073 170.984004 
L 224.474473 170.764964 
L 224.590302 170.674112 
L 224.764045 170.529717 
L 224.82196 170.529717 
L 224.937789 171.14079 
L 225.169446 171.060149 
L 225.516933 170.452693 
L 226.211907 170.375927 
L 226.327736 171.225474 
L 226.559393 171.212058 
L 226.90688 170.621197 
L 227.370196 170.576686 
L 227.543939 170.436825 
L 227.601854 170.436825 
L 227.717683 171.331017 
L 227.94934 171.331017 
L 228.354742 170.707431 
L 228.412656 170.707431 
L 228.933886 169.488571 
L 228.991801 169.488571 
L 229.10763 170.236363 
L 229.339287 170.222221 
L 229.686774 169.678946 
L 229.860517 169.611999 
L 230.092175 169.247839 
L 230.265919 169.038627 
L 230.381748 169.038627 
L 230.497577 170.022883 
L 230.787149 169.970535 
L 231.076721 169.6193 
L 231.71378 169.6193 
L 231.771695 169.903455 
L 231.887523 171.126909 
L 232.177096 171.121209 
L 232.466668 170.71735 
L 233.103727 170.71735 
L 233.393299 172.367794 
L 233.567043 172.31733 
L 233.856615 171.91409 
L 234.030358 171.91409 
L 234.377845 171.160292 
L 234.551588 171.14818 
L 234.667417 172.164275 
L 234.95699 172.118913 
L 235.246562 171.723125 
L 235.420305 171.612827 
L 235.767792 170.692554 
L 235.941535 170.678858 
L 236.057364 171.683556 
L 236.346937 171.616987 
L 236.636509 171.17313 
L 236.983996 171.084923 
L 237.331482 170.672886 
L 237.447311 171.525523 
L 237.736884 171.479106 
L 238.026456 171.122747 
L 238.200199 171.108925 
L 238.431857 170.827909 
L 238.663515 170.606098 
L 238.721429 170.606098 
L 238.837258 171.699585 
L 239.184745 171.613351 
L 239.416403 171.364229 
L 239.995547 171.364229 
L 240.053462 171.502777 
L 240.28512 173.894272 
L 240.574692 173.810679 
L 240.80635 173.558252 
L 241.095922 173.558252 
L 241.211751 173.844725 
L 241.385494 173.844725 
L 241.443409 174.186307 
L 241.675067 176.57319 
L 241.964639 176.500773 
L 242.196297 176.261415 
L 242.485869 176.261415 
L 242.659612 176.379673 
L 242.775441 176.379673 
L 242.833356 176.758735 
L 243.065014 179.178966 
L 243.354586 179.082466 
L 243.586244 178.821311 
L 244.223303 178.809768 
L 244.281217 178.979711 
L 244.397046 180.202956 
L 244.686618 180.162342 
L 244.976191 179.760335 
L 245.61325 179.760335 
L 245.844908 181.587273 
L 246.076565 181.512212 
L 246.366138 181.067684 
L 246.539881 181.058258 
L 246.713624 180.85082 
L 246.771539 180.83372 
L 247.003197 180.534909 
L 247.061111 180.534909 
L 247.17694 181.371622 
L 247.408598 181.371622 
L 247.756085 180.785618 
L 247.871914 180.785618 
L 248.335229 179.852003 
L 248.451058 179.852003 
L 248.566887 180.608143 
L 248.798545 180.585803 
L 249.146032 179.935933 
L 249.261861 179.935933 
L 249.725176 178.977146 
L 249.841005 178.977146 
L 249.956834 179.58518 
L 250.188492 179.50012 
L 250.535979 178.771824 
L 250.651807 178.713365 
L 250.999294 177.790902 
L 251.173038 177.593418 
L 251.230952 177.593418 
L 251.346781 177.988012 
L 251.520524 177.988012 
L 252.620899 175.517527 
L 252.736728 175.8053 
L 252.910471 175.804207 
L 253.315873 174.850968 
L 253.489616 174.79441 
L 254.010846 174.169809 
L 254.126675 174.386915 
L 254.300418 174.384474 
L 254.705819 173.516084 
L 254.879563 173.443052 
L 255.342878 173.162314 
L 255.400793 173.162314 
L 255.516622 173.564838 
L 255.690365 173.564838 
L 256.327424 172.13345 
L 256.616997 171.303512 
L 256.79074 171.243575 
L 256.906569 171.594448 
L 257.080312 171.594448 
L 257.543628 170.671448 
L 257.659457 170.590043 
L 257.891115 170.403964 
L 258.006944 170.314925 
L 258.180687 170.247581 
L 258.296516 170.453994 
L 258.470259 170.438445 
L 258.87566 169.49946 
L 258.991489 169.49946 
L 259.281062 168.883689 
L 259.338976 168.883689 
L 259.512719 168.691124 
L 259.570634 168.691124 
L 259.744377 168.832977 
L 259.860206 168.832977 
L 260.265607 167.843114 
L 260.323522 167.843114 
L 260.844752 166.916723 
L 260.960581 166.916723 
L 261.134324 167.040333 
L 261.250153 166.990668 
L 261.655554 165.975256 
L 261.713469 165.975256 
L 262.350528 164.435226 
L 262.6401 164.34604 
L 263.045501 163.299963 
L 263.103416 163.299963 
L 263.798389 161.960843 
L 264.030047 161.864585 
L 264.435448 160.813283 
L 264.493363 160.813283 
L 265.130422 159.446292 
L 265.419994 159.344776 
L 265.825395 158.301461 
L 265.88331 158.301461 
L 266.520369 156.832085 
L 266.694112 156.899446 
L 266.809941 156.819057 
L 267.215342 155.77973 
L 267.331171 155.704051 
L 267.620743 155.211567 
L 267.852401 154.840305 
L 268.199888 154.729776 
L 268.605289 153.690259 
L 268.663204 153.690259 
L 269.242348 151.996516 
L 269.589835 151.923665 
L 269.995236 150.876141 
L 270.053151 150.876141 
L 270.632295 149.112157 
L 270.921867 149.112157 
L 271.21144 148.251399 
L 271.385183 147.936373 
L 271.443097 147.936373 
L 272.022242 146.850922 
L 272.311814 146.850922 
L 272.543472 146.179737 
L 272.77513 145.67745 
L 272.833044 145.67745 
L 273.412189 144.062774 
L 273.701761 144.062774 
L 273.991334 143.196703 
L 274.165077 142.879755 
L 274.222991 142.879755 
L 274.802136 141.16911 
L 275.091708 141.16911 
L 276.249997 138.686035 
L 276.481655 138.686035 
L 277.58203 136.242999 
L 277.871602 136.242999 
L 278.62449 134.644442 
L 278.798234 134.567671 
L 279.029891 134.341111 
L 279.261549 134.341111 
L 280.361924 131.868395 
L 280.709411 131.773807 
L 281.114812 130.730267 
L 281.172726 130.730267 
L 281.693956 129.168042 
L 281.983529 129.142147 
L 282.041443 129.142147 
L 283.141818 126.674162 
L 283.43139 126.674162 
L 284.358021 123.995923 
L 284.531765 123.697343 
L 284.821337 123.697343 
L 285.690054 121.672588 
L 285.921712 121.266535 
L 286.211284 121.266535 
L 287.080001 119.09328 
L 287.19583 118.997597 
L 287.369573 118.889168 
L 287.601231 118.889168 
L 288.412033 116.867098 
L 288.469948 116.848972 
L 288.701606 116.444323 
L 288.991178 116.444323 
L 290.033638 113.769812 
L 290.265296 113.730052 
L 290.381125 113.730052 
L 290.902355 112.4968 
L 291.713157 111.992777 
L 291.771072 111.992777 
L 292.871447 109.103468 
L 293.161019 109.103468 
L 293.971821 107.197 
L 294.08765 107.111894 
L 294.319308 106.857911 
L 294.550966 106.857911 
L 295.072196 105.619137 
L 295.245939 105.231124 
L 295.65134 104.633792 
L 295.940913 104.633792 
L 296.520057 103.294511 
L 296.751715 102.948499 
L 296.867544 102.883576 
L 297.099202 102.636165 
L 297.33086 102.636165 
L 298.083748 100.797829 
L 298.199577 100.749451 
L 298.431234 100.341423 
L 298.720807 100.341423 
L 299.821181 97.435243 
L 300.110754 97.435243 
L 300.805727 95.673368 
L 301.153214 95.204715 
L 301.384872 95.161892 
L 301.500701 95.161892 
L 302.253589 93.082665 
L 302.369417 93.050653 
L 302.65899 92.633779 
L 302.890648 92.633779 
L 303.933108 89.72165 
L 304.106851 89.66954 
L 304.280595 89.66954 
L 305.26514 86.917901 
L 305.438884 86.752349 
L 305.670541 86.749523 
L 306.655087 83.917625 
L 306.828831 83.747256 
L 307.060488 83.738332 
L 307.523804 82.472951 
L 307.639633 82.380274 
L 307.929205 82.03783 
L 308.334606 81.700574 
L 308.450435 81.695116 
L 308.913751 80.422147 
L 308.971666 80.405389 
L 309.55081 78.905388 
L 309.840382 78.893605 
L 310.59327 76.722306 
L 310.651185 76.722306 
L 310.998671 76.06091 
L 311.230329 76.045552 
L 311.983217 73.856435 
L 312.041132 73.854646 
L 312.330704 73.142 
L 312.620276 73.121577 
L 313.373164 70.953681 
L 313.488993 70.875178 
L 313.778565 70.408597 
L 314.010223 70.387727 
L 314.473539 69.119425 
L 314.589368 69.03254 
L 314.821026 68.743302 
L 314.994769 68.636533 
L 315.168512 68.483569 
L 315.40017 68.466369 
L 315.863486 67.198555 
L 315.979315 67.105924 
L 316.210973 66.803505 
L 316.326802 66.784117 
L 316.558459 66.521181 
L 316.790117 66.506362 
L 317.716748 63.91201 
L 317.948406 63.579398 
L 318.180064 63.555894 
L 319.106695 60.961666 
L 319.338353 60.625601 
L 319.570011 60.597062 
L 320.554557 57.782518 
L 320.7283 57.59222 
L 320.959958 57.558913 
L 321.712846 55.453593 
L 321.77076 55.453593 
L 322.118247 54.799871 
L 322.349905 54.76322 
L 323.044879 52.889603 
L 323.334451 52.463613 
L 323.508194 52.26907 
L 323.739852 52.230416 
L 324.203168 50.957 
L 324.261082 50.942459 
L 324.666483 50.209039 
L 324.898141 49.887447 
L 325.129799 49.853502 
L 325.651029 48.541184 
L 325.998516 47.904491 
L 326.114345 47.778903 
L 326.288088 47.594806 
L 326.519746 47.559737 
L 326.983062 46.282311 
L 327.040976 46.280929 
L 327.330548 45.81578 
L 327.446377 45.787471 
L 327.678035 45.500836 
L 327.909693 45.471393 
L 328.373009 44.195462 
L 328.430923 44.195462 
L 328.720495 43.736236 
L 328.836324 43.703298 
L 329.067982 43.436309 
L 329.29964 43.409428 
L 329.762956 42.13509 
L 329.82087 42.123869 
L 330.168357 41.531528 
L 330.457929 41.143409 
L 330.689587 41.118606 
L 331.558304 38.710052 
L 331.789961 38.186427 
L 332.079534 38.151377 
L 332.542849 36.873932 
L 332.600764 36.873932 
L 333.237823 35.80386 
L 333.469481 35.769059 
L 334.222369 33.590182 
L 334.280283 33.590182 
L 334.454027 33.332727 
L 522.27061 33.332727 
L 522.386439 33.791149 
L 522.618097 33.780611 
L 522.907669 33.332727 
L 563.969019 33.332727 
L 564.084848 34.347583 
L 564.316506 34.347583 
L 564.663992 33.663738 
L 564.837736 33.621998 
L 565.011479 33.332727 
L 566.748913 33.332727 
L 566.864742 33.532327 
L 567.154314 33.477634 
L 567.328057 33.332727 
L 572.308701 33.332727 
L 572.42453 34.031912 
L 572.656187 34.00658 
L 573.003674 33.332727 
L 595.937799 33.332727 
L 596.053628 33.651343 
L 596.285286 33.650272 
L 596.516944 33.332727 
L 597.327746 33.332727 
L 597.443575 33.70294 
L 597.675233 33.664589 
L 597.906891 33.332727 
L 608.447322 33.332727 
L 608.563151 33.685249 
L 608.910637 33.635517 
L 609.142295 33.389582 
L 609.837269 33.389582 
L 609.953098 33.979237 
L 610.358499 33.907838 
L 610.532242 33.774106 
L 611.169301 33.774106 
L 611.400959 35.612467 
L 611.632617 35.612467 
L 611.922189 35.144014 
L 613.080478 35.033375 
L 613.312136 34.794541 
L 614.00711 34.799638 
L 614.122938 35.963222 
L 614.586254 35.871242 
L 614.817912 35.833554 
L 615.107484 35.938051 
L 615.339142 36.254536 
L 615.5708 38.48643 
L 616.381602 38.418085 
L 616.555346 38.929764 
L 616.729089 39.218714 
L 616.960747 41.480626 
L 618.119036 41.463051 
L 618.350694 43.785256 
L 619.161496 43.785256 
L 619.33524 44.856873 
L 619.508983 45.288877 
L 619.740641 47.641381 
L 620.551443 47.641381 
L 620.667272 48.049259 
L 620.783101 48.155605 
L 620.89893 48.519033 
L 621.130588 50.895342 
L 621.94139 50.934846 
L 622.115134 52.346015 
L 622.288877 52.879442 
L 622.520535 55.306094 
L 622.636364 55.351797 
L 622.636364 55.351797 
" style="fill:none;stroke:#2ca02c;stroke-linecap:square;stroke-width:1.5;"/>
   </g>
   <g id="patch_3">
    <path d="M 90 189 
L 90 25.92 
" style="fill:none;stroke:#000000;stroke-linecap:square;stroke-linejoin:miter;stroke-width:0.8;"/>
   </g>
   <g id="patch_4">
    <path d="M 648 189 
L 648 25.92 
" style="fill:none;stroke:#000000;stroke-linecap:square;stroke-linejoin:miter;stroke-width:0.8;"/>
   </g>
   <g id="patch_5">
    <path d="M 90 189 
L 648 189 
" style="fill:none;stroke:#000000;stroke-linecap:square;stroke-linejoin:miter;stroke-width:0.8;"/>
   </g>
   <g id="patch_6">
    <path d="M 90 25.92 
L 648 25.92 
" style="fill:none;stroke:#000000;stroke-linecap:square;stroke-linejoin:miter;stroke-width:0.8;"/>
   </g>
   <g id="text_13">
    <!-- Stockage d'hydrogène -->
    <g transform="translate(301.795313 19.92)scale(0.12 -0.12)">
     <defs>
      <path d="M 3425 4513 
L 3425 3897 
Q 3066 4069 2747 4153 
Q 2428 4238 2131 4238 
Q 1616 4238 1336 4038 
Q 1056 3838 1056 3469 
Q 1056 3159 1242 3001 
Q 1428 2844 1947 2747 
L 2328 2669 
Q 3034 2534 3370 2195 
Q 3706 1856 3706 1288 
Q 3706 609 3251 259 
Q 2797 -91 1919 -91 
Q 1588 -91 1214 -16 
Q 841 59 441 206 
L 441 856 
Q 825 641 1194 531 
Q 1563 422 1919 422 
Q 2459 422 2753 634 
Q 3047 847 3047 1241 
Q 3047 1584 2836 1778 
Q 2625 1972 2144 2069 
L 1759 2144 
Q 1053 2284 737 2584 
Q 422 2884 422 3419 
Q 422 4038 858 4394 
Q 1294 4750 2059 4750 
Q 2388 4750 2728 4690 
Q 3069 4631 3425 4513 
z
" id="DejaVuSans-53" transform="scale(0.015625)"/>
      <path d="M 2194 1759 
Q 1497 1759 1228 1600 
Q 959 1441 959 1056 
Q 959 750 1161 570 
Q 1363 391 1709 391 
Q 2188 391 2477 730 
Q 2766 1069 2766 1631 
L 2766 1759 
L 2194 1759 
z
M 3341 1997 
L 3341 0 
L 2766 0 
L 2766 531 
Q 2569 213 2275 61 
Q 1981 -91 1556 -91 
Q 1019 -91 701 211 
Q 384 513 384 1019 
Q 384 1609 779 1909 
Q 1175 2209 1959 2209 
L 2766 2209 
L 2766 2266 
Q 2766 2663 2505 2880 
Q 2244 3097 1772 3097 
Q 1472 3097 1187 3025 
Q 903 2953 641 2809 
L 641 3341 
Q 956 3463 1253 3523 
Q 1550 3584 1831 3584 
Q 2591 3584 2966 3190 
Q 3341 2797 3341 1997 
z
" id="DejaVuSans-61" transform="scale(0.015625)"/>
      <path d="M 2906 2969 
L 2906 4863 
L 3481 4863 
L 3481 0 
L 2906 0 
L 2906 525 
Q 2725 213 2448 61 
Q 2172 -91 1784 -91 
Q 1150 -91 751 415 
Q 353 922 353 1747 
Q 353 2572 751 3078 
Q 1150 3584 1784 3584 
Q 2172 3584 2448 3432 
Q 2725 3281 2906 2969 
z
M 947 1747 
Q 947 1113 1208 752 
Q 1469 391 1925 391 
Q 2381 391 2643 752 
Q 2906 1113 2906 1747 
Q 2906 2381 2643 2742 
Q 2381 3103 1925 3103 
Q 1469 3103 1208 2742 
Q 947 2381 947 1747 
z
" id="DejaVuSans-64" transform="scale(0.015625)"/>
      <path d="M 1147 4666 
L 1147 2931 
L 616 2931 
L 616 4666 
L 1147 4666 
z
" id="DejaVuSans-27" transform="scale(0.015625)"/>
      <path d="M 2059 -325 
Q 1816 -950 1584 -1140 
Q 1353 -1331 966 -1331 
L 506 -1331 
L 506 -850 
L 844 -850 
Q 1081 -850 1212 -737 
Q 1344 -625 1503 -206 
L 1606 56 
L 191 3500 
L 800 3500 
L 1894 763 
L 2988 3500 
L 3597 3500 
L 2059 -325 
z
" id="DejaVuSans-79" transform="scale(0.015625)"/>
      <path d="M 3597 1894 
L 3597 1613 
L 953 1613 
Q 991 1019 1311 708 
Q 1631 397 2203 397 
Q 2534 397 2845 478 
Q 3156 559 3463 722 
L 3463 178 
Q 3153 47 2828 -22 
Q 2503 -91 2169 -91 
Q 1331 -91 842 396 
Q 353 884 353 1716 
Q 353 2575 817 3079 
Q 1281 3584 2069 3584 
Q 2775 3584 3186 3129 
Q 3597 2675 3597 1894 
z
M 3022 2063 
Q 3016 2534 2758 2815 
Q 2500 3097 2075 3097 
Q 1594 3097 1305 2825 
Q 1016 2553 972 2059 
L 3022 2063 
z
M 1581 5119 
L 2463 3950 
L 1984 3950 
L 966 5119 
L 1581 5119 
z
" id="DejaVuSans-e8" transform="scale(0.015625)"/>
     </defs>
     <use xlink:href="#DejaVuSans-53"/>
     <use x="63.476562" xlink:href="#DejaVuSans-74"/>
     <use x="102.685547" xlink:href="#DejaVuSans-6f"/>
     <use x="163.867188" xlink:href="#DejaVuSans-63"/>
     <use x="218.847656" xlink:href="#DejaVuSans-6b"/>
     <use x="275.007812" xlink:href="#DejaVuSans-61"/>
     <use x="336.287109" xlink:href="#DejaVuSans-67"/>
     <use x="399.763672" xlink:href="#DejaVuSans-65"/>
     <use x="461.287109" xlink:href="#DejaVuSans-20"/>
     <use x="493.074219" xlink:href="#DejaVuSans-64"/>
     <use x="556.550781" xlink:href="#DejaVuSans-27"/>
     <use x="584.041016" xlink:href="#DejaVuSans-68"/>
     <use x="647.419922" xlink:href="#DejaVuSans-79"/>
     <use x="706.599609" xlink:href="#DejaVuSans-64"/>
     <use x="770.076172" xlink:href="#DejaVuSans-72"/>
     <use x="808.939453" xlink:href="#DejaVuSans-6f"/>
     <use x="870.121094" xlink:href="#DejaVuSans-67"/>
     <use x="933.597656" xlink:href="#DejaVuSans-e8"/>
     <use x="995.121094" xlink:href="#DejaVuSans-6e"/>
     <use x="1058.5" xlink:href="#DejaVuSans-65"/>
    </g>
   </g>
   <g id="legend_1">
    <g id="patch_7">
     <path d="M 428.071875 184 
L 641 184 
Q 643 184 643 182 
L 643 138.965625 
Q 643 136.965625 641 136.965625 
L 428.071875 136.965625 
Q 426.071875 136.965625 426.071875 138.965625 
L 426.071875 182 
Q 426.071875 184 428.071875 184 
z
" style="fill:#ffffff;opacity:0.8;stroke:#cccccc;stroke-linejoin:miter;"/>
    </g>
    <g id="line2d_14">
     <path d="M 430.071875 145.064063 
L 450.071875 145.064063 
" style="fill:none;stroke:#1f77b4;stroke-linecap:square;stroke-width:1.5;"/>
    </g>
    <g id="line2d_15"/>
    <g id="text_14">
     <!-- Année normale -->
     <g transform="translate(458.071875 148.564063)scale(0.1 -0.1)">
      <defs>
       <path d="M 2188 4044 
L 1331 1722 
L 3047 1722 
L 2188 4044 
z
M 1831 4666 
L 2547 4666 
L 4325 0 
L 3669 0 
L 3244 1197 
L 1141 1197 
L 716 0 
L 50 0 
L 1831 4666 
z
" id="DejaVuSans-41" transform="scale(0.015625)"/>
       <path d="M 3328 2828 
Q 3544 3216 3844 3400 
Q 4144 3584 4550 3584 
Q 5097 3584 5394 3201 
Q 5691 2819 5691 2113 
L 5691 0 
L 5113 0 
L 5113 2094 
Q 5113 2597 4934 2840 
Q 4756 3084 4391 3084 
Q 3944 3084 3684 2787 
Q 3425 2491 3425 1978 
L 3425 0 
L 2847 0 
L 2847 2094 
Q 2847 2600 2669 2842 
Q 2491 3084 2119 3084 
Q 1678 3084 1418 2786 
Q 1159 2488 1159 1978 
L 1159 0 
L 581 0 
L 581 3500 
L 1159 3500 
L 1159 2956 
Q 1356 3278 1631 3431 
Q 1906 3584 2284 3584 
Q 2666 3584 2933 3390 
Q 3200 3197 3328 2828 
z
" id="DejaVuSans-6d" transform="scale(0.015625)"/>
       <path d="M 603 4863 
L 1178 4863 
L 1178 0 
L 603 0 
L 603 4863 
z
" id="DejaVuSans-6c" transform="scale(0.015625)"/>
      </defs>
      <use xlink:href="#DejaVuSans-41"/>
      <use x="68.408203" xlink:href="#DejaVuSans-6e"/>
      <use x="131.787109" xlink:href="#DejaVuSans-6e"/>
      <use x="195.166016" xlink:href="#DejaVuSans-e9"/>
      <use x="256.689453" xlink:href="#DejaVuSans-65"/>
      <use x="318.212891" xlink:href="#DejaVuSans-20"/>
      <use x="350" xlink:href="#DejaVuSans-6e"/>
      <use x="413.378906" xlink:href="#DejaVuSans-6f"/>
      <use x="474.560547" xlink:href="#DejaVuSans-72"/>
      <use x="513.923828" xlink:href="#DejaVuSans-6d"/>
      <use x="611.335938" xlink:href="#DejaVuSans-61"/>
      <use x="672.615234" xlink:href="#DejaVuSans-6c"/>
      <use x="700.398438" xlink:href="#DejaVuSans-65"/>
     </g>
    </g>
    <g id="line2d_16">
     <path d="M 430.071875 159.742188 
L 450.071875 159.742188 
" style="fill:none;stroke:#ff7f0e;stroke-linecap:square;stroke-width:1.5;"/>
    </g>
    <g id="line2d_17"/>
    <g id="text_15">
     <!-- Année difficile (85% ensoleillement) -->
     <g transform="translate(458.071875 163.242188)scale(0.1 -0.1)">
      <defs>
       <path d="M 2375 4863 
L 2375 4384 
L 1825 4384 
Q 1516 4384 1395 4259 
Q 1275 4134 1275 3809 
L 1275 3500 
L 2222 3500 
L 2222 3053 
L 1275 3053 
L 1275 0 
L 697 0 
L 697 3053 
L 147 3053 
L 147 3500 
L 697 3500 
L 697 3744 
Q 697 4328 969 4595 
Q 1241 4863 1831 4863 
L 2375 4863 
z
" id="DejaVuSans-66" transform="scale(0.015625)"/>
       <path d="M 1984 4856 
Q 1566 4138 1362 3434 
Q 1159 2731 1159 2009 
Q 1159 1288 1364 580 
Q 1569 -128 1984 -844 
L 1484 -844 
Q 1016 -109 783 600 
Q 550 1309 550 2009 
Q 550 2706 781 3412 
Q 1013 4119 1484 4856 
L 1984 4856 
z
" id="DejaVuSans-28" transform="scale(0.015625)"/>
       <path d="M 4653 2053 
Q 4381 2053 4226 1822 
Q 4072 1591 4072 1178 
Q 4072 772 4226 539 
Q 4381 306 4653 306 
Q 4919 306 5073 539 
Q 5228 772 5228 1178 
Q 5228 1588 5073 1820 
Q 4919 2053 4653 2053 
z
M 4653 2450 
Q 5147 2450 5437 2106 
Q 5728 1763 5728 1178 
Q 5728 594 5436 251 
Q 5144 -91 4653 -91 
Q 4153 -91 3862 251 
Q 3572 594 3572 1178 
Q 3572 1766 3864 2108 
Q 4156 2450 4653 2450 
z
M 1428 4353 
Q 1159 4353 1004 4120 
Q 850 3888 850 3481 
Q 850 3069 1003 2837 
Q 1156 2606 1428 2606 
Q 1700 2606 1854 2837 
Q 2009 3069 2009 3481 
Q 2009 3884 1853 4118 
Q 1697 4353 1428 4353 
z
M 4250 4750 
L 4750 4750 
L 1831 -91 
L 1331 -91 
L 4250 4750 
z
M 1428 4750 
Q 1922 4750 2215 4408 
Q 2509 4066 2509 3481 
Q 2509 2891 2217 2550 
Q 1925 2209 1428 2209 
Q 931 2209 642 2551 
Q 353 2894 353 3481 
Q 353 4063 643 4406 
Q 934 4750 1428 4750 
z
" id="DejaVuSans-25" transform="scale(0.015625)"/>
       <path d="M 513 4856 
L 1013 4856 
Q 1481 4119 1714 3412 
Q 1947 2706 1947 2009 
Q 1947 1309 1714 600 
Q 1481 -109 1013 -844 
L 513 -844 
Q 928 -128 1133 580 
Q 1338 1288 1338 2009 
Q 1338 2731 1133 3434 
Q 928 4138 513 4856 
z
" id="DejaVuSans-29" transform="scale(0.015625)"/>
      </defs>
      <use xlink:href="#DejaVuSans-41"/>
      <use x="68.408203" xlink:href="#DejaVuSans-6e"/>
      <use x="131.787109" xlink:href="#DejaVuSans-6e"/>
      <use x="195.166016" xlink:href="#DejaVuSans-e9"/>
      <use x="256.689453" xlink:href="#DejaVuSans-65"/>
      <use x="318.212891" xlink:href="#DejaVuSans-20"/>
      <use x="350" xlink:href="#DejaVuSans-64"/>
      <use x="413.476562" xlink:href="#DejaVuSans-69"/>
      <use x="441.259766" xlink:href="#DejaVuSans-66"/>
      <use x="476.464844" xlink:href="#DejaVuSans-66"/>
      <use x="511.669922" xlink:href="#DejaVuSans-69"/>
      <use x="539.453125" xlink:href="#DejaVuSans-63"/>
      <use x="594.433594" xlink:href="#DejaVuSans-69"/>
      <use x="622.216797" xlink:href="#DejaVuSans-6c"/>
      <use x="650" xlink:href="#DejaVuSans-65"/>
      <use x="711.523438" xlink:href="#DejaVuSans-20"/>
      <use x="743.310547" xlink:href="#DejaVuSans-28"/>
      <use x="782.324219" xlink:href="#DejaVuSans-38"/>
      <use x="845.947266" xlink:href="#DejaVuSans-35"/>
      <use x="909.570312" xlink:href="#DejaVuSans-25"/>
      <use x="1004.589844" xlink:href="#DejaVuSans-20"/>
      <use x="1036.376953" xlink:href="#DejaVuSans-65"/>
      <use x="1097.900391" xlink:href="#DejaVuSans-6e"/>
      <use x="1161.279297" xlink:href="#DejaVuSans-73"/>
      <use x="1213.378906" xlink:href="#DejaVuSans-6f"/>
      <use x="1274.560547" xlink:href="#DejaVuSans-6c"/>
      <use x="1302.34375" xlink:href="#DejaVuSans-65"/>
      <use x="1363.867188" xlink:href="#DejaVuSans-69"/>
      <use x="1391.650391" xlink:href="#DejaVuSans-6c"/>
      <use x="1419.433594" xlink:href="#DejaVuSans-6c"/>
      <use x="1447.216797" xlink:href="#DejaVuSans-65"/>
      <use x="1508.740234" xlink:href="#DejaVuSans-6d"/>
      <use x="1606.152344" xlink:href="#DejaVuSans-65"/>
      <use x="1667.675781" xlink:href="#DejaVuSans-6e"/>
      <use x="1731.054688" xlink:href="#DejaVuSans-74"/>
      <use x="1770.263672" xlink:href="#DejaVuSans-29"/>
     </g>
    </g>
    <g id="line2d_18">
     <path d="M 430.071875 174.420313 
L 450.071875 174.420313 
" style="fill:none;stroke:#2ca02c;stroke-linecap:square;stroke-width:1.5;"/>
    </g>
    <g id="line2d_19"/>
    <g id="text_16">
     <!-- Année suivante -->
     <g transform="translate(458.071875 177.920313)scale(0.1 -0.1)">
      <defs>
       <path d="M 191 3500 
L 800 3500 
L 1894 563 
L 2988 3500 
L 3597 3500 
L 2284 0 
L 1503 0 
L 191 3500 
z
" id="DejaVuSans-76" transform="scale(0.015625)"/>
      </defs>
      <use xlink:href="#DejaVuSans-41"/>
      <use x="68.408203" xlink:href="#DejaVuSans-6e"/>
      <use x="131.787109" xlink:href="#DejaVuSans-6e"/>
      <use x="195.166016" xlink:href="#DejaVuSans-e9"/>
      <use x="256.689453" xlink:href="#DejaVuSans-65"/>
      <use x="318.212891" xlink:href="#DejaVuSans-20"/>
      <use x="350" xlink:href="#DejaVuSans-73"/>
      <use x="402.099609" xlink:href="#DejaVuSans-75"/>
      <use x="465.478516" xlink:href="#DejaVuSans-69"/>
      <use x="493.261719" xlink:href="#DejaVuSans-76"/>
      <use x="552.441406" xlink:href="#DejaVuSans-61"/>
      <use x="613.720703" xlink:href="#DejaVuSans-6e"/>
      <use x="677.099609" xlink:href="#DejaVuSans-74"/>
      <use x="716.308594" xlink:href="#DejaVuSans-65"/>
     </g>
    </g>
   </g>
  </g>
 </g>
 <defs>
  <clipPath id="p5b633f754d">
   <rect height="163.08" width="558" x="90" y="25.92"/>
  </clipPath>
 </defs>
</svg>
